<svg width="150" height="50" viewBox="0 0 150 50" fill="none" xmlns="http://www.w3.org/2000/svg">
<g clip-path="url(#clip0_15_2)">
<path fill-rule="evenodd" clip-rule="evenodd" d="M32.3284 12.1245L32.244 12.4056L32.1174 12.7671L31.7376 13.008L31.6532 13.249L31.4422 13.5703L30.978 13.9719L30.5138 14.2932V14.4137L30.2183 14.8956L30.1339 15.4177H30.3872L31.1468 15.0161L32.033 14.6145L32.8349 14.5341L33.4257 14.6948L34.1431 15.0161L34.5651 15.4177L34.9028 15.9799L35.2404 16.9036V17.6667V19.0321L35.0294 19.5141V20.1968L35.578 21.241L35.9156 22.245L36 23.2892V24.4137L35.8312 25.6586L35.578 26.7831L34.9028 28.8715L34.0587 30.6386L32.7083 32.7269L31.5688 34.1727L30.345 35.5382L29.3743 36.3414L29.1633 36.6627L28.6569 37.0643L28.5725 37.2249L28.6569 37.3454L29.1633 37.5462L29.3743 37.6265L29.4587 37.8273H29.6275L30.0495 38.3092L30.0917 38.8715V39.2731L29.8807 39.5944L29.3743 39.996L28.9101 40.2369L27.6862 40.5984L26.2514 40.8795L24.9009 41H23.8037L22.7486 40.9197L21.5248 40.7189L20.3853 40.4779L19.5835 40.1968L18.9505 39.7952L18.6972 39.4739V39.0723V38.4699L18.9505 38.0683L19.3303 37.7068L19.7945 37.4257L20.1321 37.2249L20.5541 37.1847V37.1044L20.4697 37.0643L20.2587 36.9036L19.7101 36.5823L19.2881 36.2209L19.1193 36.0201L18.7817 35.6586L17.7688 34.5341L17.0936 33.6506L16.2495 32.5261L15.6165 31.6024L14.8991 30.4378L14.5193 29.7149L14.0972 28.7108L13.844 28.0683L13.6752 27.5462L13.5064 27.0241L13.3798 26.502L13.3376 26.1406L13.211 25.6988L13 24.6948V23.0482L13.1266 22.1647L13.3376 21.3213L13.9284 19.7952L13.8862 19.3534L13.7596 17.9478V16.7028L13.8862 15.9799L14.1394 15.4177L14.4349 14.9759L15.1101 14.4538L15.6165 14.2129L16.1651 14.0924H16.8404L17.389 14.2129L17.8954 14.4137L18.4862 14.7349V14.494L18.3596 14.1727L17.8954 13.8112L17.5578 13.5301L17.2624 13.1687L17.2202 13.008L17.1358 12.7671L16.8826 12.6466L16.756 12.5261L16.6294 12.3253L16.5872 12.0442L16.7138 11.8032L17.178 11.6024L17.8532 11.4418L19.4991 11.241L21.356 11.0803L22.9174 11H25.4495L27.011 11.0803L28.8679 11.2008L29.9651 11.3213L30.7248 11.4418L31.1468 11.5221L31.5688 11.6426L31.8642 11.7229L32.244 11.9639L32.3284 12.1245ZM15.3211 18.8715L15.2367 18.2691L15.1945 17.5462V16.7831V16.2209L15.3211 15.7791L15.5321 15.4177L15.9119 15.2169H16.545L17.0514 15.3373L17.4312 15.5382L17.8532 15.8594L18.233 16.2209L18.5284 16.5823L18.6972 16.9036L18.6128 17.3052L18.4862 17.6265L18.4018 17.8273L17.9376 18.0281L17.4734 18.1888L16.967 18.3896L16.545 18.6305L16.0807 18.7912L15.9119 18.8715L15.7009 18.992H15.4477L15.3211 18.9116V18.8715ZM33.8477 18.4297L33.7633 19.1928L33.6789 19.2731L33.5523 19.1928L33.2569 18.9518L32.8349 18.751L32.3706 18.51L31.822 18.3092L30.8936 17.988L30.4294 17.8675L30.3872 17.747L30.345 17.5863L30.3028 17.3052L30.345 16.9839L30.5138 16.7028L30.8092 16.4217L31.189 16.0602L31.6954 15.739L32.0752 15.6185H32.5394L32.9193 15.739L33.3413 15.9799L33.5945 16.4618L33.7633 16.9036L33.8477 17.5462V18.4297Z" fill="black"/>
<path d="M121.04 19.4381C124.169 17.4453 127.611 17.18 131.301 17.7955C131.268 17.8187 131.236 17.8428 131.204 17.8659L131.185 17.8786L131.168 17.8942C130.539 18.431 130.433 19.093 130.411 19.694V19.7184L130.416 20.1139C130.416 20.1766 130.416 20.2393 130.417 20.3024C130.013 20.2973 129.609 20.2935 129.206 20.2907C129.013 20.289 128.819 20.2868 128.626 20.2838H128.625C126.173 20.2474 123.8 20.6225 121.748 22.0924C121.624 22.1778 121.5 22.2633 121.373 22.3512L121.364 22.3571L121.355 22.3639C120.881 22.7233 120.576 23.1315 120.292 23.5504C120.243 23.6199 120.195 23.6898 120.144 23.7614L120.142 23.7643C119.881 24.1422 119.644 24.5261 119.432 24.9391C119.378 25.0327 119.345 25.0903 119.318 25.1315C119.316 25.1348 119.313 25.1375 119.311 25.1403C119.309 25.1411 119.307 25.1423 119.305 25.1432C119.212 25.1533 119.192 25.1557 119.164 25.1539C119.115 25.1509 119.047 25.1398 118.83 25.1022L118.81 25.0993L118.79 25.0973L118.614 25.0856C117.998 25.0627 117.488 25.2212 117.021 25.4772C117.117 23.6901 117.954 22.2817 119.384 20.8209L119.403 20.7995C119.497 20.6923 119.59 20.5854 119.686 20.4752C119.994 20.1423 120.355 19.8834 120.794 19.5983H120.795C120.917 19.5187 120.917 19.5164 121.039 19.4371L121.04 19.4381Z" fill="black" stroke="black"/>
<path d="M126.857 22.6162C128.758 22.3396 130.678 22.5274 132.211 23.4775C132.415 23.6258 132.616 23.7779 132.812 23.9336L132.813 23.9346C132.906 24.0077 132.999 24.0802 133.095 24.1553V24.1562C134.486 25.3333 135.424 26.8765 136.097 28.5234L136.098 28.5264C136.719 30.021 137.635 31.321 138.595 32.583C138.651 32.6585 138.707 32.7344 138.765 32.8115C138.347 32.7739 137.933 32.7317 137.521 32.6738H137.518C137.438 32.6633 137.359 32.6524 137.278 32.6416C137.197 32.6055 137.165 32.5744 137.141 32.5449C137.12 32.5196 137.096 32.4845 137.062 32.4268C137.044 32.398 137.026 32.3673 137.005 32.3301C136.989 32.3026 136.971 32.2725 136.952 32.2402C136.86 32.0311 136.775 31.8188 136.693 31.6045L136.692 31.6035L136.544 31.2139C136.494 31.0815 136.445 30.9489 136.394 30.8125L136.393 30.8096L136.237 30.4053H136.238C135.831 29.3327 135.84 29.3567 135.736 28.9512L135.653 28.6289L135.325 28.5811L134.32 28.4404C134.046 28.4079 133.817 28.3901 133.589 28.3896C133.132 28.3887 132.683 28.4563 131.886 28.5742L131.782 28.5898L131.693 28.6455C131.587 28.712 131.476 28.7783 131.371 28.8818C131.277 28.9745 131.192 29.0935 131.091 29.2324L131.027 29.3203L131.005 29.4258C130.978 29.5566 130.947 29.6933 130.947 29.8271C130.947 29.9707 130.982 30.1007 131.009 30.21L131.059 30.4141L131.239 30.5215C132.347 31.1799 133.59 31.3657 134.766 31.5156C134.783 31.5215 134.797 31.5253 134.809 31.5293C134.812 31.5349 134.816 31.5414 134.82 31.5479C134.903 31.736 134.942 31.8971 134.974 32.1309V32.1328C134.987 32.2304 135.001 32.3283 135.015 32.4287V32.4297C135.029 32.5366 135.042 32.6438 135.057 32.7539L135.058 32.7578C135.081 32.9259 135.081 32.9262 135.104 33.0977C135.154 33.4559 135.202 33.8144 135.25 34.1738V34.1748L135.441 35.5811C135.465 35.7522 135.464 35.7526 135.488 35.9277V35.9287C135.604 36.7605 135.739 37.5884 135.896 38.415V38.416C135.981 38.8718 136.022 39.3148 136.021 39.7656C135.853 39.7083 135.686 39.6488 135.518 39.584L135.516 39.583L135.234 39.4766H135.235C133.499 38.809 132.655 38.4848 132.057 38.208C131.475 37.9389 131.132 37.7178 130.389 37.2383L130.386 37.2363L129.992 36.9854H129.991C129.429 36.6177 129.181 36.454 129.023 36.3271C128.89 36.2201 128.832 36.1496 128.655 35.9238L128.635 35.8975L128.611 35.875L128.338 35.6064L128.181 35.4531L127.961 35.4648C127.155 35.5084 126.385 35.729 125.692 35.9033C125.442 35.965 125.192 36.0273 124.942 36.0889H124.941C124.548 36.1863 124.154 36.2841 123.761 36.3828C123.381 36.4779 123 36.5715 122.619 36.665L122.615 36.666L122.26 36.7568C122.152 36.7832 122.043 36.8098 121.932 36.8369H121.929C121.844 36.858 121.76 36.8789 121.674 36.9004C121.568 36.9129 121.473 36.9137 121.372 36.9043C121.447 35.5144 121.485 34.7416 121.419 33.9756C121.35 33.1688 121.166 32.3755 120.823 30.8809L120.818 30.8574L120.811 30.834L120.734 30.5898C120.383 29.3501 120.41 27.8047 120.927 26.6885L120.929 26.6855C120.976 26.5809 121.023 26.4756 121.072 26.3682C121.464 25.591 121.98 24.9947 122.685 24.3672L122.694 24.3584C122.757 24.2994 122.819 24.2393 122.884 24.1787L122.885 24.1797C123.832 23.3626 125.206 22.9182 126.571 22.6797L126.582 22.6777L126.593 22.6748C126.68 22.6555 126.768 22.6361 126.857 22.6162Z" fill="black" stroke="black"/>
<path d="M120.133 12.1533C125.07 9.9264 131.8 9.89454 136.652 12.3945C136.65 12.4016 136.644 12.4192 136.627 12.4531C136.598 12.5109 136.564 12.5686 136.504 12.6787L136.502 12.6816C136.445 12.7863 136.389 12.8913 136.331 12.999C136.268 13.1123 136.205 13.2261 136.141 13.3428L136.139 13.3467L135.756 14.0498C135.692 14.1663 135.628 14.2833 135.562 14.4033L135.562 14.4062C135.392 14.7206 135.229 15.0358 135.07 15.3525C135.026 15.441 134.981 15.5299 134.935 15.6211V15.6221C134.851 15.7885 134.768 15.9556 134.687 16.123C134.627 16.2391 134.561 16.3539 134.49 16.4727C134.43 16.4867 134.414 16.4877 134.407 16.4873C134.404 16.4871 134.39 16.4856 134.348 16.4727C134.3 16.458 134.241 16.4367 134.14 16.3984V16.3975L134.134 16.3955C134.039 16.3612 133.945 16.3274 133.848 16.292H133.849C133.747 16.2547 133.645 16.2171 133.54 16.1787H133.541L133.531 16.1758L133.188 16.0625C129.865 15.0084 126.159 15.0877 122.827 15.999L122.144 16.1992L121.8 16.3037L121.788 16.3076C118.766 17.3014 116.704 19.5171 115.387 22.0225L115.38 22.0342L115.374 22.0479C114.726 23.4694 114.65 24.7846 114.72 26.1709L114.757 26.7695C114.928 29.2162 115.032 31.4395 114.186 33.6641L114.181 33.6758C114.148 33.7684 114.116 33.8618 114.083 33.957C113.682 34.9862 112.858 36.0719 111.904 36.8613C112.507 34.8331 112.646 32.829 112.361 30.7207H112.362C112.346 30.595 112.329 30.4694 112.312 30.3398L112.312 30.3379L112.213 29.6436C112.11 28.95 111.994 28.2598 111.873 27.5723C111.721 26.706 111.586 25.8792 111.536 25.041L111.521 24.6807C111.518 24.5912 111.515 24.5013 111.513 24.4092C111.483 23.2037 111.485 22.0878 111.757 20.9736L111.759 20.9678C111.789 20.8353 111.819 20.7019 111.851 20.5654C112.378 18.5581 113.592 16.9768 115.175 15.4297L115.497 15.1201L115.504 15.1143C115.576 15.043 115.65 14.9708 115.725 14.8975C116.737 13.9324 117.968 13.1923 119.296 12.5469L119.871 12.2754C119.958 12.2356 120.045 12.1953 120.134 12.1543L120.133 12.1533Z" fill="black" stroke="black"/>
<g clip-path="url(#clip1_15_2)">
<path d="M67.6781 12.0761C67.7672 12.838 67.2548 13.5845 66.8015 14.157C66.4075 14.6156 65.9555 14.9907 65.3988 15.2364C64.9692 15.4555 64.7398 15.9495 64.4985 16.3468C64.559 16.3177 64.6189 16.2886 64.6812 16.2583C65.4312 15.8999 66.0191 15.692 66.8676 15.7279C66.8975 16.067 66.7623 16.2045 66.5528 16.4564C66.3944 16.6365 66.2354 16.8048 66.0571 16.9657H65.9325V17.0895C65.809 17.1304 65.6856 17.1712 65.5584 17.2133V17.3371C65.4518 17.3866 65.3452 17.4355 65.2392 17.4844C65.18 17.5117 65.1207 17.5389 65.0596 17.5674C64.7363 17.7056 64.4809 17.7698 64.2934 17.7598C64.0397 17.7499 63.8364 17.7469 63.6263 17.8948C63.3252 18.3188 63.0029 18.9779 63.0029 19.504C63.0366 19.4731 63.0696 19.4427 63.1039 19.4112C63.4262 19.1339 63.7479 18.934 64.1363 18.7656C64.1775 18.7477 64.2192 18.7291 64.2616 18.7105C64.5285 18.5997 64.7716 18.5434 65.0596 18.5143C65.1074 18.582 65.149 18.6645 65.1843 18.7619C65.1469 18.8774 65.0975 18.9961 65.0359 19.1178C65.006 19.1785 64.9761 19.2397 64.9449 19.3022C64.9212 19.3487 64.8969 19.3951 64.8726 19.4427H64.7479C64.7068 19.5653 64.6656 19.6878 64.6232 19.8141H64.4985C64.4817 19.8506 64.4642 19.8878 64.4468 19.9255C64.1426 20.4937 63.448 20.857 62.8558 21.0631C62.6974 21.1065 62.5403 21.1448 62.3788 21.1764C62.2467 21.8944 62.1594 22.6185 62.0671 23.3427C62.0964 23.3 62.1263 23.2573 62.1563 23.2133C62.5665 22.6346 63.0328 22.051 63.6881 21.7334C63.836 21.7178 63.9607 21.7178 64.0621 21.7334C64.0933 22.6649 63.6575 23.4572 63.097 24.1733C63.0659 24.2055 63.0343 24.2381 63.0023 24.2711H62.8776V24.3949C62.7691 24.4846 62.6569 24.5688 62.5422 24.6499C62.4798 24.6949 62.4171 24.7402 62.3539 24.786C62.2458 24.8554 62.1502 24.89 62.0671 24.89C62.1058 25.1599 62.145 25.4291 62.1843 25.6984C62.1949 25.7745 62.2061 25.8506 62.2174 25.9286C62.271 26.2925 62.3252 26.6441 62.4418 26.9938C62.569 26.8044 62.5914 26.706 62.6326 26.4869C62.771 25.9014 63.1058 25.3852 63.4393 24.8894C63.569 24.8816 63.6937 24.8816 63.8134 24.8894C64.0777 25.9039 64.0603 26.9059 63.564 27.8603C63.4699 28.0101 63.3726 28.1556 63.2691 28.2992C63.2093 28.3813 63.1621 28.4826 63.1276 28.6031C63.1918 28.7435 63.2591 28.8698 63.3383 29.0016C63.3608 29.04 63.3832 29.0778 63.4056 29.1168C63.6058 29.451 63.834 29.7574 64.0765 30.0619C64.1509 30.1622 64.2088 30.2742 64.2504 30.398H64.3751C64.3545 30.3571 64.334 30.3163 64.3128 30.2742C64.2238 29.1671 64.3069 28.4038 64.5621 27.9841C64.6511 27.9503 64.7342 27.9296 64.8115 27.9222C65.3838 28.5325 65.5977 29.4572 65.579 30.2705C65.5509 30.5496 65.483 30.8145 65.4075 31.0844C65.3701 31.2793 65.3682 31.3877 65.4349 31.574C65.8576 32.0685 66.4649 32.4374 66.9936 32.8118C66.9711 32.7568 66.9487 32.7017 66.9256 32.6453C66.7248 32.1118 66.6525 31.626 66.655 31.0559C66.655 30.9928 66.655 30.9303 66.655 30.8653C66.6613 30.5657 66.7118 30.3689 66.8065 30.2748C67.0098 30.2829 67.0977 30.3175 67.2467 30.4562C67.5235 30.8108 67.7485 31.1624 67.9287 31.5746C67.9505 31.6241 67.9724 31.6742 67.9948 31.7256C68.2124 32.3167 68.246 33.0031 68.1157 33.6171C68.1619 33.6344 68.208 33.6511 68.2554 33.6691C68.4125 33.7347 68.5416 33.8077 68.6843 33.8993C69.1351 34.1729 69.6157 34.3846 70.0945 34.6043C70.2161 34.66 70.3377 34.7169 70.4586 34.7739C71.2778 35.157 72.1051 35.4584 72.9686 35.7264C73.3994 35.8601 73.8209 36.0049 74.2392 36.1721C74.6301 36.2723 75.0048 36.0854 75.3701 35.953C75.7654 35.8125 76.1606 35.6788 76.5621 35.5581C76.9798 35.4312 77.3782 35.2771 77.7778 35.1013C77.8645 35.0642 77.9518 35.0264 78.0384 34.9893C78.92 34.608 79.7747 34.1933 80.602 33.7068C80.7142 33.6462 80.8119 33.6158 80.895 33.6158C80.8851 33.5837 80.8751 33.5509 80.8645 33.5174C80.6625 32.5717 80.9699 31.6092 81.4605 30.804C81.5004 30.7514 81.5397 30.6988 81.5808 30.6443H81.7055C81.7236 30.6059 81.7417 30.5676 81.7604 30.528C81.8069 30.4405 81.8718 30.3555 81.9549 30.2729C82.0638 30.2886 82.1677 30.3093 82.2666 30.3348C82.4212 31.1791 82.3028 32.0054 82.0172 32.8106C82.0609 32.7747 82.1049 32.7386 82.1494 32.7023C82.2061 32.6565 82.2629 32.6107 82.3215 32.563C82.378 32.5172 82.4349 32.4708 82.4923 32.4238C82.5912 32.3516 82.6822 32.3155 82.7654 32.3155V32.1917C82.8352 32.1294 82.9158 32.065 83.0073 31.9986C83.0522 31.9651 83.097 31.9317 83.1432 31.8977C83.2242 31.8465 83.3063 31.8209 83.3894 31.8209V31.6971H83.5141C83.6382 31.4236 83.6345 31.2701 83.5509 30.9866C83.3177 30 83.4992 29.0004 83.9842 28.119C84.0449 28.0287 84.1168 27.9629 84.1999 27.9216C84.283 27.9216 84.3562 27.9451 84.4194 27.9922C84.877 28.5641 84.7167 29.6534 84.6987 30.3355C84.799 30.2092 84.8988 30.0829 84.9985 29.9567C85.0266 29.9214 85.0546 29.8861 85.084 29.8496C85.256 29.6299 85.3919 29.4145 85.5091 29.1595H85.6338C85.6413 29.1236 85.6494 29.0883 85.6575 29.0512C85.6833 28.9583 85.7197 28.8706 85.7666 28.7881C85.8364 28.6303 85.814 28.5783 85.7591 28.4167C85.703 28.3208 85.6444 28.2267 85.584 28.1345C85.0116 27.2067 84.8645 26.1192 85.1027 25.0596C85.1251 24.987 85.1571 24.9301 85.1987 24.8888C85.2976 24.8772 85.4015 24.8772 85.5104 24.8888C85.6687 25.0274 85.7716 25.2075 85.8844 25.3839C85.9125 25.4267 85.9399 25.4687 85.9686 25.5127C86.2666 26.0023 86.4225 26.5544 86.5079 27.117C86.7317 26.3829 86.8483 25.6489 86.9443 24.8888C86.8969 24.8708 86.8502 24.8529 86.8015 24.8343C86.6002 24.7514 86.4337 24.6462 86.2585 24.5174V24.3936C86.2217 24.3775 86.1843 24.3615 86.1463 24.3454C85.9979 24.2637 85.915 24.182 85.8065 24.0532C85.7741 24.0155 85.7417 23.9777 85.708 23.9393C85.6594 23.8708 85.6351 23.7953 85.6351 23.7128H85.5104C85.4399 23.5674 85.3695 23.4213 85.2997 23.2758C85.2797 23.235 85.2604 23.1948 85.2398 23.1527C85.0634 22.7825 84.93 22.4304 84.9412 22.0151C84.9424 21.9618 84.9437 21.908 84.9443 21.8529C84.9455 21.8133 84.947 21.7733 84.9487 21.7328C85.2585 21.7087 85.4088 21.7601 85.6581 21.942C85.7124 21.981 85.7672 22.0194 85.8234 22.0596C85.8639 22.0949 85.9044 22.1302 85.9468 22.1667V22.2905L86.064 22.3369C86.2186 22.4273 86.256 22.4997 86.3209 22.6618H86.4455C86.5175 22.7522 86.5927 22.8554 86.6712 22.9713C86.7107 23.0287 86.7504 23.0866 86.7903 23.1452C86.8202 23.1898 86.8502 23.2344 86.8813 23.2808C86.8975 22.8129 86.8358 22.3759 86.7566 21.9154C86.7448 21.8442 86.733 21.7731 86.7205 21.6994C86.6912 21.5249 86.6619 21.3509 86.632 21.1764C86.5553 21.1578 86.478 21.1393 86.3988 21.1207C85.4911 20.8942 84.7186 20.3365 84.2005 19.5672C83.9416 19.1347 83.8242 18.8387 83.8483 18.679C83.8614 18.6449 83.8751 18.6115 83.8888 18.5768C84.1793 18.484 84.3826 18.5595 84.6525 18.6734C84.6937 18.6901 84.7348 18.7074 84.7778 18.7248C85.2373 18.9197 85.6263 19.1865 86.0085 19.5053C85.9038 19.0763 85.7392 18.7006 85.531 18.3132C85.4387 18.1393 85.3851 18.034 85.3851 17.8341C85.3315 17.8335 85.2778 17.8323 85.2224 17.8316C84.3639 17.797 83.713 17.5172 83.016 17.0295C82.9686 16.9969 82.9206 16.9641 82.872 16.9311C82.8371 16.902 82.8022 16.8735 82.7666 16.8438V16.72C82.7317 16.7085 82.6966 16.6969 82.6613 16.6854C82.453 16.5566 82.3271 16.3728 82.2055 16.163V16.0392H82.0808C82.1014 15.9371 82.122 15.8349 82.1432 15.7297C82.9636 15.6759 83.675 15.8894 84.3876 16.2868V16.4106L84.5123 16.3487C84.4674 16.2874 84.4225 16.2267 84.3757 16.1636C84.3171 16.0838 84.2585 16.0033 84.2005 15.9235C84.1706 15.8832 84.1413 15.843 84.1101 15.8015C83.9626 15.5981 83.8888 15.4506 83.8888 15.359C83.8321 15.341 83.7753 15.3231 83.7174 15.3045C83.5571 15.2494 83.4144 15.1906 83.2654 15.1114V14.9876C83.1419 14.9468 83.0185 14.9059 82.8913 14.8638V14.74C82.8558 14.7246 82.8202 14.7085 82.7835 14.6924C82.0472 14.2938 81.5734 13.3381 81.3327 12.5738C81.2947 12.4221 81.2772 12.2977 81.2704 12.1405C81.3115 12.0996 81.3527 12.0588 81.395 12.0167C81.6906 12.0347 81.8932 12.1325 82.1432 12.2835C82.208 12.3225 82.2722 12.3615 82.3389 12.4017C82.398 12.438 82.4574 12.4747 82.5172 12.5119C82.5605 12.5379 82.6043 12.5643 82.6488 12.5911C82.717 12.6336 82.7978 12.6897 82.8913 12.7594V12.8832C82.9281 12.8999 82.9655 12.9166 83.0035 12.934C83.7392 13.3239 84.0952 14.2362 84.3676 14.974C84.4406 15.1504 84.5135 15.2767 84.6369 15.4203C84.6388 15.3633 84.6401 15.3064 84.6419 15.2476C84.6835 14.3278 84.8273 13.7458 85.0734 13.5015C85.1756 13.5061 85.2795 13.5267 85.3851 13.5634C85.9337 14.2406 86.0677 15.3862 86.0085 16.2249C85.9493 16.5467 85.8676 16.8624 85.7803 17.178C85.7554 17.3687 85.7866 17.4491 85.8714 17.62C85.8963 17.6711 85.9214 17.7229 85.9468 17.7753C85.9736 17.8279 86.0004 17.8805 86.0278 17.935C86.054 17.9882 86.0796 18.0415 86.1064 18.0959C86.2105 18.307 86.3134 18.5051 86.4443 18.7006C86.458 18.6425 86.4717 18.5837 86.4854 18.5236C86.6604 17.8069 86.8545 17.3088 87.0677 17.0295C87.1746 16.9903 87.2785 16.9697 87.3795 16.9676C87.7666 17.352 87.7585 18.1622 87.7691 18.6771C87.7548 19.2905 87.6706 19.9998 87.2791 20.4993C87.1388 20.6924 87.1638 20.888 87.1924 21.1145C87.2348 21.302 87.2835 21.4871 87.334 21.6728C87.395 21.9197 87.4175 22.1617 87.4418 22.4143C87.4624 22.4551 87.483 22.496 87.5042 22.5381C87.5235 22.4978 87.5422 22.457 87.5621 22.4155C87.7454 22.0528 87.9555 21.7421 88.2255 21.4394C88.2542 21.406 88.283 21.3724 88.3121 21.3386C88.3687 21.2775 88.4528 21.2028 88.5646 21.1145C88.7375 21.1211 88.8622 21.1624 88.9387 21.2383C89.011 22.3344 88.8134 23.4095 88.1126 24.2872C87.9998 24.3986 87.9 24.4574 87.7542 24.5187V24.6425C87.6926 24.6833 87.6303 24.7246 87.5671 24.7662C87.5389 24.8661 87.5199 24.9748 87.5104 25.0924C87.5029 25.1574 87.4954 25.223 87.4873 25.2899C87.4805 25.3586 87.473 25.4267 87.4661 25.4972C87.4512 25.6315 87.4362 25.7664 87.4206 25.9008C87.4144 25.9608 87.4081 26.0202 87.4013 26.0821C87.3807 26.2443 87.352 26.4015 87.3177 26.5612C87.3472 26.5343 87.377 26.5073 87.4069 26.4801C87.4455 26.4454 87.4848 26.4114 87.5247 26.3755C87.5628 26.3408 87.6014 26.3068 87.6407 26.2709C87.7163 26.2168 87.8165 26.1898 87.9412 26.1898V26.066C88.0484 26.0134 88.1563 25.962 88.2647 25.9113C88.3246 25.8828 88.3851 25.8537 88.4468 25.824C88.6276 25.7559 88.7479 25.7374 88.9387 25.7565C88.9593 25.777 88.9798 25.7974 89.001 25.8184C88.9867 26.5884 88.4649 27.2928 87.9655 27.8492C87.9077 27.8983 87.8373 27.9228 87.7542 27.9228V28.0466C87.4649 28.2948 87.1638 28.4786 86.7997 28.5919C86.5285 28.6872 86.4406 28.7974 86.3128 29.0524C86.2716 29.1496 86.2323 29.2474 86.1955 29.3464H86.0709C86.0559 29.4002 86.0403 29.4541 86.0247 29.5092C85.9406 29.7332 85.834 29.8911 85.6893 30.0811C85.6444 30.1411 85.5989 30.2005 85.5522 30.2624C85.5179 30.307 85.483 30.3522 85.4474 30.3986C85.501 30.3899 85.5546 30.3806 85.6101 30.3714C86.4929 30.234 87.1037 30.243 87.4424 30.3986C87.4374 30.5639 87.4113 30.674 87.2984 30.7984C87.1837 30.8981 87.0659 30.9897 86.9437 31.0794C86.9 31.1116 86.857 31.1438 86.8121 31.1766C86.1494 31.6408 85.4431 31.8457 84.6369 31.8296C84.5827 31.8296 84.5285 31.8283 84.4724 31.8277C84.3402 31.8265 84.208 31.824 84.0758 31.8215C84.0584 31.8599 84.0409 31.8977 84.0229 31.9373C83.925 32.118 83.7934 32.2127 83.632 32.3402C83.5709 32.3885 83.5098 32.4368 83.4474 32.4863C83.223 32.6596 82.9967 32.831 82.7672 32.9975C82.8121 32.9963 82.8564 32.9944 82.9025 32.9932C83.5129 32.982 84.1263 33.0229 84.6999 33.2451C84.7465 33.3227 84.7672 33.4052 84.7623 33.4927C84.2828 34.0435 83.3595 34.2583 82.6581 34.3171C82.0964 34.3264 81.6108 34.2379 81.084 34.0497V34.1735C80.8813 34.2843 80.6787 34.3951 80.4761 34.5065C80.4187 34.5381 80.3614 34.5696 80.3022 34.6018C80.2467 34.6321 80.1912 34.6625 80.1338 34.6934C80.0827 34.7215 80.0312 34.7495 79.9792 34.7776C79.8495 34.8469 79.7192 34.9131 79.5871 34.9781C79.6257 34.9917 79.6637 35.0054 79.7037 35.019C80.1731 35.1935 80.6862 35.4033 80.9586 35.8446C80.9379 35.9556 80.8963 36.0588 80.834 36.1541C80.2211 36.3243 79.5353 36.2414 78.9792 35.9449C78.819 35.8533 78.7018 35.7698 78.5684 35.6404C78.4595 35.5537 78.3354 35.5308 78.1962 35.5717C78.1226 35.6014 78.049 35.6317 77.9736 35.6621C77.9007 35.6911 77.8271 35.7196 77.7523 35.7493C77.6139 35.8081 77.4767 35.8682 77.3402 35.9301C76.9692 36.0885 76.5783 36.1987 76.1937 36.32C76.1114 36.346 76.0297 36.372 75.9474 36.398C75.7479 36.4611 75.5478 36.5242 75.3483 36.5868C75.4194 36.6189 75.4904 36.6511 75.5634 36.6845C76.3209 37.033 77.0528 37.4167 77.7797 37.8246V37.9484C77.8152 37.9558 77.8514 37.9633 77.8882 37.9707C78.1301 38.0388 78.3327 38.1638 78.5278 38.3198C78.5823 38.4229 78.6031 38.5261 78.5902 38.6293C78.4256 38.8341 78.2947 38.9684 78.0291 39.0006C77.8763 38.9121 77.7417 38.8224 77.6002 38.7184C77.511 38.6552 77.4212 38.5921 77.3315 38.5296C77.2835 38.4956 77.2348 38.4615 77.1856 38.4269C76.5085 37.9583 75.8115 37.5059 75.0677 37.1481C75.0253 37.1271 74.9836 37.1067 74.9399 37.085C74.67 36.9618 74.5116 36.9538 74.2261 37.0206C74.1147 37.0656 74.0046 37.1174 73.8957 37.176C73.8346 37.2075 73.7735 37.2391 73.7111 37.2719C73.6482 37.3053 73.5858 37.3381 73.521 37.3728C73.4593 37.405 73.3969 37.4372 73.3333 37.47C72.9499 37.6705 72.5871 37.8884 72.2317 38.1347C72.1756 38.1731 72.1201 38.2108 72.0628 38.2505C72.0172 38.2826 71.9711 38.3142 71.9243 38.3476C71.8726 38.3835 71.8215 38.4188 71.7685 38.4559C71.6581 38.5339 71.5484 38.6138 71.4399 38.6942C71.3851 38.7345 71.3302 38.7747 71.2741 38.8156C71.2248 38.8527 71.1756 38.8898 71.1245 38.9276C71.0318 38.9767 70.9416 38.9977 70.8539 38.9907C70.6619 38.9072 70.554 38.7914 70.4243 38.6299C70.4214 38.5325 70.4422 38.4293 70.4867 38.3204C70.6288 38.204 70.7604 38.11 70.9156 38.0146C70.958 37.9874 71.001 37.9608 71.0447 37.9323C71.6868 37.5288 72.3601 37.2063 73.049 36.89C73.16 36.838 73.2697 36.7823 73.3788 36.7266C73.4873 36.6746 73.5831 36.6486 73.6662 36.6486V36.5249C73.6151 36.5174 73.5646 36.5106 73.5116 36.5032C73.2579 36.4568 73.0166 36.3893 72.7697 36.3163C72.7248 36.3033 72.6806 36.2903 72.6344 36.2773C72.2298 36.1584 71.8402 36.0186 71.4568 35.8422C71.1309 35.6759 70.7945 35.5888 70.4474 35.581C70.3651 35.6441 70.2893 35.7145 70.2199 35.792C69.9237 36.1071 69.4474 36.2018 69.031 36.2228C68.6999 36.2315 68.43 36.1993 68.117 36.0916C68.1041 35.9781 68.1041 35.8543 68.117 35.7202C68.2159 35.622 68.3198 35.5395 68.4287 35.4727H68.5534V35.3489C68.8209 35.2263 69.0883 35.1038 69.3639 34.9775C69.2766 34.9305 69.1899 34.8834 69.1002 34.8352C68.9854 34.7733 68.8707 34.7107 68.756 34.6489C68.6987 34.6179 68.6413 34.587 68.5821 34.5554C68.5268 34.5253 68.4707 34.4949 68.4138 34.4644C68.3626 34.4366 68.3121 34.4093 68.2591 34.3809C68.164 34.3251 68.0721 34.2626 67.9836 34.1933C67.9059 34.1269 67.8098 34.1036 67.6955 34.1234C67.554 34.1587 67.4138 34.1976 67.2747 34.2397C66.2897 34.483 65.3527 34.1549 64.4773 33.7273C64.368 33.6538 64.2936 33.5738 64.2541 33.4871C64.2521 33.4083 64.2718 33.3276 64.3134 33.2451C64.91 33.0285 65.554 32.9975 66.1837 32.9975C66.0746 32.9084 65.9655 32.8193 65.8564 32.7308C65.7959 32.6812 65.7348 32.6317 65.6725 32.5804C65.5677 32.4962 65.4611 32.4145 65.3508 32.3371C65.3171 32.3099 65.283 32.2824 65.2485 32.2548V32.131C65.2124 32.1143 65.1768 32.0976 65.1394 32.0809C65.0459 32.0318 64.9642 31.9746 64.8944 31.9094C64.6874 31.7832 64.5303 31.8123 64.2897 31.8252C63.5983 31.8457 62.983 31.6612 62.3807 31.3264V31.2026C62.3396 31.1908 62.2984 31.1797 62.256 31.1679C61.9917 31.0423 61.7554 30.8727 61.5702 30.6455C61.5607 30.5329 61.5607 30.4297 61.5702 30.3361C62.2535 30.182 62.8975 30.2928 63.5652 30.4599C63.3944 30.202 63.2178 29.948 63.0353 29.698C62.9343 29.5636 62.8689 29.4448 62.8034 29.2888C62.6941 29.0239 62.5337 28.7993 62.3221 28.6148C62.1357 28.5399 61.9487 28.4786 61.7579 28.4174C61.6962 28.3765 61.6344 28.3357 61.5709 28.2936V28.1698C61.5241 28.1537 61.478 28.1376 61.43 28.1209C60.7492 27.8232 60.3252 26.9579 60.0503 26.3099C59.9973 26.1428 59.9942 25.9911 60.0123 25.8178C60.2242 25.7479 60.3152 25.7528 60.5278 25.8314C60.6006 25.869 60.6741 25.9069 60.7485 25.9453C60.8209 25.9818 60.8932 26.0184 60.968 26.0561C61.2286 26.1997 61.4611 26.3786 61.6955 26.5605C61.6662 26.3154 61.6326 26.0716 61.5964 25.8277C61.579 25.7046 61.564 25.5814 61.549 25.4582C61.4661 24.9148 61.3246 24.6456 60.91 24.2835C60.703 24.0953 60.5933 23.8954 60.4798 23.6441C60.4599 23.6039 60.4399 23.5636 60.4194 23.5222C60.0821 22.8209 60.006 22.0021 60.0721 21.2364C60.1133 21.1956 60.1548 21.1543 60.1968 21.1126C60.5135 21.1448 60.6887 21.3782 60.8826 21.6078C61.0378 21.8294 61.18 22.0571 61.319 22.2886C61.3813 22.392 61.4437 22.4947 61.506 22.5981C61.5154 22.5504 61.5241 22.5034 61.5335 22.4545C61.5746 22.2391 61.6164 22.0243 61.6575 21.8089C61.6719 21.7341 61.6862 21.6598 61.7012 21.5824C61.7149 21.5106 61.7288 21.438 61.7429 21.3646C61.7554 21.2983 61.7685 21.2321 61.7816 21.164C61.8053 21.0468 61.8306 20.942 61.8576 20.8496C61.8813 20.7712 61.8657 20.6883 61.8109 20.6008C61.7772 20.5513 61.7436 20.5017 61.7086 20.4504C61.1644 19.5975 61.1737 18.5997 61.3383 17.6305C61.3458 17.5853 61.3533 17.5407 61.3608 17.4943C61.3944 17.3148 61.425 17.1756 61.5366 17.0283C61.5997 16.9862 61.6714 16.9639 61.7517 16.9614C62.1681 17.1743 62.3034 17.7964 62.4412 18.203C62.4911 18.3887 62.5303 18.5713 62.5659 18.7601C62.5945 18.6944 62.6232 18.6288 62.6525 18.5608C62.6712 18.5187 62.6893 18.4766 62.7086 18.4333C62.7485 18.341 62.7884 18.2494 62.8283 18.1572C62.9281 17.9276 63.031 17.7196 63.17 17.511C63.2535 17.3501 63.256 17.2913 63.2111 17.1124C63.1887 17.0499 63.1662 16.9874 63.1426 16.923C62.8171 16.0163 62.9543 15.0538 63.314 14.1805C63.3402 14.1155 63.3664 14.0512 63.3932 13.9843C63.485 13.7797 63.5625 13.6387 63.6257 13.5616C63.7363 13.5306 63.8402 13.51 63.9374 13.4997C64.2354 14.1719 64.324 14.7487 64.3115 15.4803H64.4362C64.4543 15.4351 64.4724 15.3905 64.4911 15.3441C64.5341 15.2371 64.5777 15.13 64.6214 15.0223C64.6413 14.9728 64.6613 14.9232 64.6818 14.8725C64.7018 14.8236 64.7217 14.7747 64.7417 14.7246C64.7791 14.6299 64.8159 14.5339 64.8489 14.4374C64.9593 14.1199 65.1089 13.8661 65.309 13.5962C65.3364 13.5579 65.3641 13.5189 65.3919 13.4793C65.5283 13.2919 65.6669 13.175 65.8078 13.1283V13.0045C65.9468 12.8888 66.0858 12.7811 66.2323 12.6759C66.2747 12.6456 66.3171 12.6146 66.3608 12.583C66.9734 12.1506 67.4125 11.9816 67.6781 12.0761Z" fill="black"/>
</g>
</g>
<defs>
<clipPath id="clip0_15_2">
<rect width="150" height="50" fill="white"/>
</clipPath>
<clipPath id="clip1_15_2">
<rect width="29" height="27" fill="white" transform="translate(60 12)"/>
</clipPath>
</defs>
</svg>
