<svg width="60" height="60" viewBox="0 0 60 60" fill="none" xmlns="http://www.w3.org/2000/svg">
<circle cx="30" cy="30" r="28" fill="#C59748" stroke="black" stroke-width="4"/>
<path d="M30.6679 12C24.0506 12 18.667 17.364 18.667 23.9572C18.667 26.6587 19.5552 29.2097 21.2356 31.3338C21.5576 31.741 21.9044 32.142 22.2396 32.5298C23.2408 33.6872 24.1861 34.7805 24.5226 36.0102C24.5299 36.0367 24.5932 36.2949 24.5839 37.1739L24.5823 37.3009C24.5721 38.0145 24.5586 38.9915 25.2836 39.7242C25.7802 40.226 26.4761 40.47 27.4116 40.47H33.9019C34.9121 40.47 35.6383 40.2237 36.1221 39.7171C36.7765 39.0319 36.7327 38.1468 36.7035 37.5611C36.6984 37.4575 36.6929 37.353 36.6916 37.2489C36.6811 36.369 36.7472 36.1209 36.75 36.1104C37.0918 34.8809 38.1993 33.5843 39.1766 32.4405C39.5026 32.0588 39.8106 31.6983 40.0974 31.3359C41.7785 29.2115 42.667 26.66 42.667 23.9573C42.6672 17.3642 37.2844 12 30.6679 12ZM38.1993 29.8443C37.9403 30.1713 37.6467 30.5152 37.3358 30.8792C36.1964 32.2131 34.9048 33.7249 34.4205 35.4672C34.3514 35.7154 34.2613 36.1729 34.2747 37.2773C34.2763 37.4114 34.2826 37.5463 34.2893 37.6799C34.2945 37.7854 34.3014 37.9244 34.3008 38.0346C34.2157 38.0484 34.0872 38.0612 33.9019 38.0612H27.4116C27.206 38.0612 27.0857 38.0396 27.024 38.0232C26.9921 37.8663 26.9966 37.5403 26.9995 37.3348L27.0015 37.1993C27.0131 36.0883 26.9236 35.6274 26.8553 35.3771C26.375 33.621 25.151 32.2059 24.0712 30.9574C23.7383 30.5724 23.4235 30.2085 23.1344 29.8427C21.7935 28.1475 21.0847 26.1123 21.0847 23.957C21.0847 18.6919 25.3839 14.4085 30.6682 14.4085C35.9516 14.4085 40.2501 18.6919 40.2501 23.957C40.2497 26.1134 39.5408 28.1493 38.1993 29.8443Z" fill="#000002"/>
<path d="M27.6821 42.0582H33.6519C34.6658 42.0583 35.4887 42.8805 35.4888 43.8863V45.6714C35.4888 46.6773 34.6658 47.4995 33.6519 47.4996H27.6821C26.6681 47.4996 25.8452 46.6774 25.8452 45.6714V43.8863C25.8453 42.8805 26.6681 42.0582 27.6821 42.0582ZM27.2622 46.0914H34.0708V43.4673H27.2622V46.0914Z" fill="#000002" stroke="black"/>
</svg>
