<svg width="23" height="30" viewBox="0 0 23 30" fill="none" xmlns="http://www.w3.org/2000/svg">
<path fill-rule="evenodd" clip-rule="evenodd" d="M19.3284 1.1245L19.244 1.40562L19.1174 1.76707L18.7376 2.00803L18.6532 2.249L18.4422 2.57028L17.978 2.97189L17.5138 3.29317V3.41365L17.2183 3.89558L17.1339 4.41767H17.3872L18.1468 4.01606L19.033 3.61446L19.8349 3.53414L20.4257 3.69478L21.1431 4.01606L21.5651 4.41767L21.9028 4.97992L22.2404 5.90361V6.66667V8.03213L22.0294 8.51406V9.19679L22.578 10.241L22.9156 11.245L23 12.2892V13.4137L22.8312 14.6586L22.578 15.7831L21.9028 17.8715L21.0587 19.6386L19.7083 21.7269L18.5688 23.1727L17.345 24.5382L16.3743 25.3414L16.1633 25.6627L15.6569 26.0643L15.5725 26.2249L15.6569 26.3454L16.1633 26.5462L16.3743 26.6265L16.4587 26.8273H16.6275L17.0495 27.3092L17.0917 27.8715V28.2731L16.8807 28.5944L16.3743 28.996L15.9101 29.2369L14.6862 29.5984L13.2514 29.8795L11.9009 30H10.8037L9.74862 29.9197L8.52477 29.7189L7.38532 29.4779L6.58349 29.1968L5.95046 28.7952L5.69725 28.4739V28.0723V27.4699L5.95046 27.0683L6.33028 26.7068L6.7945 26.4257L7.13211 26.2249L7.55413 26.1847V26.1044L7.46973 26.0643L7.25872 25.9036L6.71009 25.5823L6.28807 25.2209L6.11927 25.0201L5.78165 24.6586L4.76881 23.5341L4.09358 22.6506L3.24954 21.5261L2.61651 20.6024L1.89908 19.4378L1.51927 18.7149L1.09725 17.7108L0.844037 17.0683L0.675229 16.5462L0.506422 16.0241L0.379817 15.502L0.337615 15.1406L0.211009 14.6988L0 13.6948V12.0482L0.126606 11.1647L0.337615 10.3213L0.92844 8.79518L0.886239 8.35341L0.759633 6.94779V5.70281L0.886239 4.97992L1.13945 4.41767L1.43486 3.9759L2.11009 3.45382L2.61651 3.21285L3.16514 3.09237H3.84037L4.38899 3.21285L4.89541 3.41365L5.48624 3.73494V3.49398L5.35963 3.17269L4.89541 2.81125L4.5578 2.53012L4.26239 2.16867L4.22018 2.00803L4.13578 1.76707L3.88257 1.64659L3.75596 1.5261L3.62936 1.3253L3.58716 1.04418L3.71376 0.803213L4.17798 0.60241L4.85321 0.441767L6.49908 0.240964L8.35596 0.0803213L9.91743 0H12.4495L14.011 0.0803213L15.8679 0.200803L16.9651 0.321285L17.7248 0.441767L18.1468 0.522088L18.5688 0.64257L18.8642 0.722892L19.244 0.963855L19.3284 1.1245ZM2.3211 7.87149L2.2367 7.26908L2.1945 6.54618V5.78313V5.22088L2.3211 4.77912L2.53211 4.41767L2.91193 4.21687H3.54495L4.05138 4.33735L4.43119 4.53815L4.85321 4.85944L5.23303 5.22088L5.52844 5.58233L5.69725 5.90361L5.61284 6.30522L5.48624 6.62651L5.40183 6.82731L4.93761 7.02811L4.47339 7.18876L3.96697 7.38956L3.54495 7.63052L3.08073 7.79117L2.91193 7.87149L2.70092 7.99197H2.44771L2.3211 7.91165V7.87149ZM20.8477 7.42972L20.7633 8.19277L20.6789 8.27309L20.5523 8.19277L20.2569 7.95181L19.8349 7.751L19.3706 7.51004L18.822 7.30924L17.8936 6.98795L17.4294 6.86747L17.3872 6.74699L17.345 6.58635L17.3028 6.30522L17.345 5.98394L17.5138 5.70281L17.8092 5.42169L18.189 5.06024L18.6954 4.73896L19.0752 4.61847H19.5395L19.9193 4.73896L20.3413 4.97992L20.5945 5.46185L20.7633 5.90361L20.8477 6.54618V7.42972Z" fill="black"/>
</svg>
