<svg width="50" height="50" viewBox="0 0 50 50" fill="none" xmlns="http://www.w3.org/2000/svg">
<g clip-path="url(#clip0_6_67)">
<path d="M17.6781 11.0761C17.7672 11.838 17.2548 12.5845 16.8015 13.157C16.4075 13.6156 15.9555 13.9907 15.3988 14.2364C14.9692 14.4555 14.7398 14.9495 14.4985 15.3468C14.559 15.3177 14.6189 15.2886 14.6812 15.2583C15.4312 14.8999 16.0191 14.692 16.8676 14.7279C16.8975 15.067 16.7623 15.2045 16.5528 15.4564C16.3944 15.6365 16.2354 15.8048 16.0571 15.9657H15.9325V16.0895C15.809 16.1304 15.6856 16.1712 15.5584 16.2133V16.3371C15.4518 16.3866 15.3452 16.4355 15.2392 16.4844C15.18 16.5117 15.1207 16.5389 15.0596 16.5674C14.7363 16.7056 14.4809 16.7698 14.2934 16.7598C14.0397 16.7499 13.8364 16.7469 13.6263 16.8948C13.3252 17.3188 13.0029 17.9779 13.0029 18.504C13.0366 18.4731 13.0696 18.4427 13.1039 18.4112C13.4262 18.1339 13.7479 17.934 14.1363 17.7656C14.1775 17.7477 14.2192 17.7291 14.2616 17.7105C14.5285 17.5997 14.7716 17.5434 15.0596 17.5143C15.1074 17.582 15.149 17.6645 15.1843 17.7619C15.1469 17.8774 15.0975 17.9961 15.0359 18.1178C15.006 18.1785 14.9761 18.2397 14.9449 18.3022C14.9212 18.3487 14.8969 18.3951 14.8726 18.4427H14.7479C14.7068 18.5653 14.6656 18.6878 14.6232 18.8141H14.4985C14.4817 18.8506 14.4642 18.8878 14.4468 18.9255C14.1426 19.4937 13.448 19.857 12.8558 20.0631C12.6974 20.1065 12.5403 20.1448 12.3788 20.1764C12.2467 20.8944 12.1594 21.6185 12.0671 22.3427C12.0964 22.3 12.1263 22.2573 12.1563 22.2133C12.5665 21.6346 13.0328 21.051 13.6881 20.7334C13.836 20.7178 13.9607 20.7178 14.0621 20.7334C14.0933 21.6649 13.6575 22.4572 13.097 23.1733C13.0659 23.2055 13.0343 23.2381 13.0023 23.2711H12.8776V23.3949C12.7691 23.4846 12.6569 23.5688 12.5422 23.6499C12.4798 23.6949 12.4171 23.7402 12.3539 23.786C12.2458 23.8554 12.1502 23.89 12.0671 23.89C12.1058 24.1599 12.145 24.4291 12.1843 24.6984C12.1949 24.7745 12.2061 24.8506 12.2174 24.9286C12.271 25.2925 12.3252 25.6441 12.4418 25.9938C12.569 25.8044 12.5914 25.706 12.6326 25.4869C12.771 24.9014 13.1058 24.3852 13.4393 23.8894C13.569 23.8816 13.6937 23.8816 13.8134 23.8894C14.0777 24.9039 14.0603 25.9059 13.564 26.8603C13.4699 27.0101 13.3726 27.1556 13.2691 27.2992C13.2093 27.3813 13.1621 27.4826 13.1276 27.6031C13.1918 27.7435 13.2591 27.8698 13.3383 28.0016C13.3608 28.04 13.3832 28.0778 13.4056 28.1168C13.6058 28.451 13.834 28.7574 14.0765 29.0619C14.1509 29.1622 14.2088 29.2742 14.2504 29.398H14.3751C14.3545 29.3571 14.334 29.3163 14.3128 29.2742C14.2238 28.1671 14.3069 27.4038 14.5621 26.9841C14.6511 26.9503 14.7342 26.9296 14.8115 26.9222C15.3838 27.5325 15.5977 28.4572 15.579 29.2705C15.5509 29.5496 15.483 29.8145 15.4075 30.0844C15.3701 30.2793 15.3682 30.3877 15.4349 30.574C15.8576 31.0685 16.4649 31.4374 16.9936 31.8118C16.9711 31.7568 16.9487 31.7017 16.9256 31.6453C16.7248 31.1118 16.6525 30.626 16.655 30.0559C16.655 29.9928 16.655 29.9303 16.655 29.8653C16.6613 29.5657 16.7118 29.3689 16.8065 29.2748C17.0098 29.2829 17.0977 29.3175 17.2467 29.4562C17.5235 29.8108 17.7485 30.1624 17.9287 30.5746C17.9505 30.6241 17.9724 30.6742 17.9948 30.7256C18.2124 31.3167 18.246 32.0031 18.1157 32.6171C18.1619 32.6344 18.208 32.6511 18.2554 32.6691C18.4125 32.7347 18.5416 32.8077 18.6843 32.8993C19.1351 33.1729 19.6157 33.3846 20.0945 33.6043C20.2161 33.66 20.3377 33.7169 20.4586 33.7739C21.2778 34.157 22.1051 34.4584 22.9686 34.7264C23.3994 34.8601 23.8209 35.0049 24.2392 35.1721C24.6301 35.2723 25.0048 35.0854 25.3701 34.953C25.7654 34.8125 26.1606 34.6788 26.5621 34.5581C26.9798 34.4312 27.3782 34.2771 27.7778 34.1013C27.8645 34.0642 27.9518 34.0264 28.0384 33.9893C28.92 33.608 29.7747 33.1933 30.602 32.7068C30.7142 32.6462 30.8119 32.6158 30.895 32.6158C30.8851 32.5837 30.8751 32.5509 30.8645 32.5174C30.6625 31.5717 30.9699 30.6092 31.4605 29.804C31.5004 29.7514 31.5397 29.6988 31.5808 29.6443H31.7055C31.7236 29.6059 31.7417 29.5676 31.7604 29.528C31.8069 29.4405 31.8718 29.3555 31.9549 29.2729C32.0638 29.2886 32.1677 29.3093 32.2666 29.3348C32.4212 30.1791 32.3028 31.0054 32.0172 31.8106C32.0609 31.7747 32.1049 31.7386 32.1494 31.7023C32.2061 31.6565 32.2629 31.6107 32.3215 31.563C32.378 31.5172 32.4349 31.4708 32.4923 31.4238C32.5912 31.3516 32.6822 31.3155 32.7654 31.3155V31.1917C32.8352 31.1294 32.9158 31.065 33.0073 30.9986C33.0522 30.9651 33.097 30.9317 33.1432 30.8977C33.2242 30.8465 33.3063 30.8209 33.3894 30.8209V30.6971H33.5141C33.6382 30.4236 33.6345 30.2701 33.5509 29.9866C33.3177 29 33.4992 28.0004 33.9842 27.119C34.0449 27.0287 34.1168 26.9629 34.1999 26.9216C34.283 26.9216 34.3562 26.9451 34.4194 26.9922C34.877 27.5641 34.7167 28.6534 34.6987 29.3355C34.799 29.2092 34.8988 29.0829 34.9985 28.9567C35.0266 28.9214 35.0546 28.8861 35.084 28.8496C35.256 28.6299 35.3919 28.4145 35.5091 28.1595H35.6338C35.6413 28.1236 35.6494 28.0883 35.6575 28.0512C35.6833 27.9583 35.7197 27.8706 35.7666 27.7881C35.8364 27.6303 35.814 27.5783 35.7591 27.4167C35.703 27.3208 35.6444 27.2267 35.584 27.1345C35.0116 26.2067 34.8645 25.1192 35.1027 24.0596C35.1251 23.987 35.1571 23.9301 35.1987 23.8888C35.2976 23.8772 35.4015 23.8772 35.5104 23.8888C35.6687 24.0274 35.7716 24.2075 35.8844 24.3839C35.9125 24.4267 35.9399 24.4687 35.9686 24.5127C36.2666 25.0023 36.4225 25.5544 36.5079 26.117C36.7317 25.3829 36.8483 24.6489 36.9443 23.8888C36.8969 23.8708 36.8502 23.8529 36.8015 23.8343C36.6002 23.7514 36.4337 23.6462 36.2585 23.5174V23.3936C36.2217 23.3775 36.1843 23.3615 36.1463 23.3454C35.9979 23.2637 35.915 23.182 35.8065 23.0532C35.7741 23.0155 35.7417 22.9777 35.708 22.9393C35.6594 22.8708 35.6351 22.7953 35.6351 22.7128H35.5104C35.4399 22.5674 35.3695 22.4213 35.2997 22.2758C35.2797 22.235 35.2604 22.1948 35.2398 22.1527C35.0634 21.7825 34.93 21.4304 34.9412 21.0151C34.9424 20.9618 34.9437 20.908 34.9443 20.8529C34.9455 20.8133 34.947 20.7733 34.9487 20.7328C35.2585 20.7087 35.4088 20.7601 35.6581 20.942C35.7124 20.981 35.7672 21.0194 35.8234 21.0596C35.8639 21.0949 35.9044 21.1302 35.9468 21.1667V21.2905L36.064 21.3369C36.2186 21.4273 36.256 21.4997 36.3209 21.6618H36.4455C36.5175 21.7522 36.5927 21.8554 36.6712 21.9713C36.7107 22.0287 36.7504 22.0866 36.7903 22.1452C36.8202 22.1898 36.8502 22.2344 36.8813 22.2808C36.8975 21.8129 36.8358 21.3759 36.7566 20.9154C36.7448 20.8442 36.733 20.7731 36.7205 20.6994C36.6912 20.5249 36.6619 20.3509 36.632 20.1764C36.5553 20.1578 36.478 20.1393 36.3988 20.1207C35.4911 19.8942 34.7186 19.3365 34.2005 18.5672C33.9416 18.1347 33.8242 17.8387 33.8483 17.679C33.8614 17.6449 33.8751 17.6115 33.8888 17.5768C34.1793 17.484 34.3826 17.5595 34.6525 17.6734C34.6937 17.6901 34.7348 17.7074 34.7778 17.7248C35.2373 17.9197 35.6263 18.1865 36.0085 18.5053C35.9038 18.0763 35.7392 17.7006 35.531 17.3132C35.4387 17.1393 35.3851 17.034 35.3851 16.8341C35.3315 16.8335 35.2778 16.8323 35.2224 16.8316C34.3639 16.797 33.713 16.5172 33.016 16.0295C32.9686 15.9969 32.9206 15.9641 32.872 15.9311C32.8371 15.902 32.8022 15.8735 32.7666 15.8438V15.72C32.7317 15.7085 32.6966 15.6969 32.6613 15.6854C32.453 15.5566 32.3271 15.3728 32.2055 15.163V15.0392H32.0808C32.1014 14.9371 32.122 14.8349 32.1432 14.7297C32.9636 14.6759 33.675 14.8894 34.3876 15.2868V15.4106L34.5123 15.3487C34.4674 15.2874 34.4225 15.2267 34.3757 15.1636C34.3171 15.0838 34.2585 15.0033 34.2005 14.9235C34.1706 14.8832 34.1413 14.843 34.1101 14.8015C33.9626 14.5981 33.8888 14.4506 33.8888 14.359C33.8321 14.341 33.7753 14.3231 33.7174 14.3045C33.5571 14.2494 33.4144 14.1906 33.2654 14.1114V13.9876C33.1419 13.9468 33.0185 13.9059 32.8913 13.8638V13.74C32.8558 13.7246 32.8202 13.7085 32.7835 13.6924C32.0472 13.2938 31.5734 12.3381 31.3327 11.5738C31.2947 11.4221 31.2772 11.2977 31.2704 11.1405C31.3115 11.0996 31.3527 11.0588 31.395 11.0167C31.6906 11.0347 31.8932 11.1325 32.1432 11.2835C32.208 11.3225 32.2722 11.3615 32.3389 11.4017C32.398 11.438 32.4574 11.4747 32.5172 11.5119C32.5605 11.5379 32.6043 11.5643 32.6488 11.5911C32.717 11.6336 32.7978 11.6897 32.8913 11.7594V11.8832C32.9281 11.8999 32.9655 11.9166 33.0035 11.934C33.7392 12.3239 34.0952 13.2362 34.3676 13.974C34.4406 14.1504 34.5135 14.2767 34.6369 14.4203C34.6388 14.3633 34.6401 14.3064 34.6419 14.2476C34.6835 13.3278 34.8273 12.7458 35.0734 12.5015C35.1756 12.5061 35.2795 12.5267 35.3851 12.5634C35.9337 13.2406 36.0677 14.3862 36.0085 15.2249C35.9493 15.5467 35.8676 15.8624 35.7803 16.178C35.7554 16.3687 35.7866 16.4491 35.8714 16.62C35.8963 16.6711 35.9214 16.7229 35.9468 16.7753C35.9736 16.8279 36.0004 16.8805 36.0278 16.935C36.054 16.9882 36.0796 17.0415 36.1064 17.0959C36.2105 17.307 36.3134 17.5051 36.4443 17.7006C36.458 17.6425 36.4717 17.5837 36.4854 17.5236C36.6604 16.8069 36.8545 16.3088 37.0677 16.0295C37.1746 15.9903 37.2785 15.9697 37.3795 15.9676C37.7666 16.352 37.7585 17.1622 37.7691 17.6771C37.7548 18.2905 37.6706 18.9998 37.2791 19.4993C37.1388 19.6924 37.1638 19.888 37.1924 20.1145C37.2348 20.302 37.2835 20.4871 37.334 20.6728C37.395 20.9197 37.4175 21.1617 37.4418 21.4143C37.4624 21.4551 37.483 21.496 37.5042 21.5381C37.5235 21.4978 37.5422 21.457 37.5621 21.4155C37.7454 21.0528 37.9555 20.7421 38.2255 20.4394C38.2542 20.406 38.283 20.3724 38.3121 20.3386C38.3687 20.2775 38.4528 20.2028 38.5646 20.1145C38.7375 20.1211 38.8622 20.1624 38.9387 20.2383C39.011 21.3344 38.8134 22.4095 38.1126 23.2872C37.9998 23.3986 37.9 23.4574 37.7542 23.5187V23.6425C37.6926 23.6833 37.6303 23.7246 37.5671 23.7662C37.5389 23.8661 37.5199 23.9748 37.5104 24.0924C37.5029 24.1574 37.4954 24.223 37.4873 24.2899C37.4805 24.3586 37.473 24.4267 37.4661 24.4972C37.4512 24.6315 37.4362 24.7664 37.4206 24.9008C37.4144 24.9608 37.4081 25.0202 37.4013 25.0821C37.3807 25.2443 37.352 25.4015 37.3177 25.5612C37.3472 25.5343 37.377 25.5073 37.4069 25.4801C37.4455 25.4454 37.4848 25.4114 37.5247 25.3755C37.5628 25.3408 37.6014 25.3068 37.6407 25.2709C37.7163 25.2168 37.8165 25.1898 37.9412 25.1898V25.066C38.0484 25.0134 38.1563 24.962 38.2647 24.9113C38.3246 24.8828 38.3851 24.8537 38.4468 24.824C38.6276 24.7559 38.7479 24.7374 38.9387 24.7565C38.9593 24.777 38.9798 24.7974 39.001 24.8184C38.9867 25.5884 38.4649 26.2928 37.9655 26.8492C37.9077 26.8983 37.8373 26.9228 37.7542 26.9228V27.0466C37.4649 27.2948 37.1638 27.4786 36.7997 27.5919C36.5285 27.6872 36.4406 27.7974 36.3128 28.0524C36.2716 28.1496 36.2323 28.2474 36.1955 28.3464H36.0709C36.0559 28.4002 36.0403 28.4541 36.0247 28.5092C35.9406 28.7332 35.834 28.8911 35.6893 29.0811C35.6444 29.1411 35.5989 29.2005 35.5522 29.2624C35.5179 29.307 35.483 29.3522 35.4474 29.3986C35.501 29.3899 35.5546 29.3806 35.6101 29.3714C36.4929 29.234 37.1037 29.243 37.4424 29.3986C37.4374 29.5639 37.4113 29.674 37.2984 29.7984C37.1837 29.8981 37.0659 29.9897 36.9437 30.0794C36.9 30.1116 36.857 30.1438 36.8121 30.1766C36.1494 30.6408 35.4431 30.8457 34.6369 30.8296C34.5827 30.8296 34.5285 30.8283 34.4724 30.8277C34.3402 30.8265 34.208 30.824 34.0758 30.8215C34.0584 30.8599 34.0409 30.8977 34.0229 30.9373C33.925 31.118 33.7934 31.2127 33.632 31.3402C33.5709 31.3885 33.5098 31.4368 33.4474 31.4863C33.223 31.6596 32.9967 31.831 32.7672 31.9975C32.8121 31.9963 32.8564 31.9944 32.9025 31.9932C33.5129 31.982 34.1263 32.0229 34.6999 32.2451C34.7465 32.3227 34.7672 32.4052 34.7623 32.4927C34.2828 33.0435 33.3595 33.2583 32.6581 33.3171C32.0964 33.3264 31.6108 33.2379 31.084 33.0497V33.1735C30.8813 33.2843 30.6787 33.3951 30.4761 33.5065C30.4187 33.5381 30.3614 33.5696 30.3022 33.6018C30.2467 33.6321 30.1912 33.6625 30.1338 33.6934C30.0827 33.7215 30.0312 33.7495 29.9792 33.7776C29.8495 33.8469 29.7192 33.9131 29.5871 33.9781C29.6257 33.9917 29.6637 34.0054 29.7037 34.019C30.1731 34.1935 30.6862 34.4033 30.9586 34.8446C30.9379 34.9556 30.8963 35.0588 30.834 35.1541C30.2211 35.3243 29.5353 35.2414 28.9792 34.9449C28.819 34.8533 28.7018 34.7698 28.5684 34.6404C28.4595 34.5537 28.3354 34.5308 28.1962 34.5717C28.1226 34.6014 28.049 34.6317 27.9736 34.6621C27.9007 34.6911 27.8271 34.7196 27.7523 34.7493C27.6139 34.8081 27.4767 34.8682 27.3402 34.9301C26.9692 35.0885 26.5783 35.1987 26.1937 35.32C26.1114 35.346 26.0297 35.372 25.9474 35.398C25.7479 35.4611 25.5478 35.5242 25.3483 35.5868C25.4194 35.6189 25.4904 35.6511 25.5634 35.6845C26.3209 36.033 27.0528 36.4167 27.7797 36.8246V36.9484C27.8152 36.9558 27.8514 36.9633 27.8882 36.9707C28.1301 37.0388 28.3327 37.1638 28.5278 37.3198C28.5823 37.4229 28.6031 37.5261 28.5902 37.6293C28.4256 37.8341 28.2947 37.9684 28.0291 38.0006C27.8763 37.9121 27.7417 37.8224 27.6002 37.7184C27.511 37.6552 27.4212 37.5921 27.3315 37.5296C27.2835 37.4956 27.2348 37.4615 27.1856 37.4269C26.5085 36.9583 25.8115 36.5059 25.0677 36.1481C25.0253 36.1271 24.9836 36.1067 24.9399 36.085C24.67 35.9618 24.5116 35.9538 24.2261 36.0206C24.1147 36.0656 24.0046 36.1174 23.8957 36.176C23.8346 36.2075 23.7735 36.2391 23.7111 36.2719C23.6482 36.3053 23.5858 36.3381 23.521 36.3728C23.4593 36.405 23.3969 36.4372 23.3333 36.47C22.9499 36.6705 22.5871 36.8884 22.2317 37.1347C22.1756 37.1731 22.1201 37.2108 22.0628 37.2505C22.0172 37.2826 21.9711 37.3142 21.9243 37.3476C21.8726 37.3835 21.8215 37.4188 21.7685 37.4559C21.6581 37.5339 21.5484 37.6138 21.4399 37.6942C21.3851 37.7345 21.3302 37.7747 21.2741 37.8156C21.2248 37.8527 21.1756 37.8898 21.1245 37.9276C21.0318 37.9767 20.9416 37.9977 20.8539 37.9907C20.6619 37.9072 20.554 37.7914 20.4243 37.6299C20.4214 37.5325 20.4422 37.4293 20.4867 37.3204C20.6288 37.204 20.7604 37.11 20.9156 37.0146C20.958 36.9874 21.001 36.9608 21.0447 36.9323C21.6868 36.5288 22.3601 36.2063 23.049 35.89C23.16 35.838 23.2697 35.7823 23.3788 35.7266C23.4873 35.6746 23.5831 35.6486 23.6662 35.6486V35.5249C23.6151 35.5174 23.5646 35.5106 23.5116 35.5032C23.2579 35.4568 23.0166 35.3893 22.7697 35.3163C22.7248 35.3033 22.6806 35.2903 22.6344 35.2773C22.2298 35.1584 21.8402 35.0186 21.4568 34.8422C21.1309 34.6759 20.7945 34.5888 20.4474 34.581C20.3651 34.6441 20.2893 34.7145 20.2199 34.792C19.9237 35.1071 19.4474 35.2018 19.031 35.2228C18.6999 35.2315 18.43 35.1993 18.117 35.0916C18.1041 34.9781 18.1041 34.8543 18.117 34.7202C18.2159 34.622 18.3198 34.5395 18.4287 34.4727H18.5534V34.3489C18.8209 34.2263 19.0883 34.1038 19.3639 33.9775C19.2766 33.9305 19.1899 33.8834 19.1002 33.8352C18.9854 33.7733 18.8707 33.7107 18.756 33.6489C18.6987 33.6179 18.6413 33.587 18.5821 33.5554C18.5268 33.5253 18.4707 33.4949 18.4138 33.4644C18.3626 33.4366 18.3121 33.4093 18.2591 33.3809C18.164 33.3251 18.0721 33.2626 17.9836 33.1933C17.9059 33.1269 17.8098 33.1036 17.6955 33.1234C17.554 33.1587 17.4138 33.1976 17.2747 33.2397C16.2897 33.483 15.3527 33.1549 14.4773 32.7273C14.368 32.6538 14.2936 32.5738 14.2541 32.4871C14.2521 32.4083 14.2718 32.3276 14.3134 32.2451C14.91 32.0285 15.554 31.9975 16.1837 31.9975C16.0746 31.9084 15.9655 31.8193 15.8564 31.7308C15.7959 31.6812 15.7348 31.6317 15.6725 31.5804C15.5677 31.4962 15.4611 31.4145 15.3508 31.3371C15.3171 31.3099 15.283 31.2824 15.2485 31.2548V31.131C15.2124 31.1143 15.1768 31.0976 15.1394 31.0809C15.0459 31.0318 14.9642 30.9746 14.8944 30.9094C14.6874 30.7832 14.5303 30.8123 14.2897 30.8252C13.5983 30.8457 12.983 30.6612 12.3807 30.3264V30.2026C12.3396 30.1908 12.2984 30.1797 12.256 30.1679C11.9917 30.0423 11.7554 29.8727 11.5702 29.6455C11.5607 29.5329 11.5607 29.4297 11.5702 29.3361C12.2535 29.182 12.8975 29.2928 13.5652 29.4599C13.3944 29.202 13.2178 28.948 13.0353 28.698C12.9343 28.5636 12.8689 28.4448 12.8034 28.2888C12.6941 28.0239 12.5337 27.7993 12.3221 27.6148C12.1357 27.5399 11.9487 27.4786 11.7579 27.4174C11.6962 27.3765 11.6344 27.3357 11.5709 27.2936V27.1698C11.5241 27.1537 11.478 27.1376 11.43 27.1209C10.7492 26.8232 10.3252 25.9579 10.0503 25.3099C9.99729 25.1428 9.99418 24.9911 10.0123 24.8178C10.2242 24.7479 10.3152 24.7528 10.5278 24.8314C10.6006 24.869 10.6741 24.9069 10.7485 24.9453C10.8209 24.9818 10.8932 25.0184 10.968 25.0561C11.2286 25.1997 11.4611 25.3786 11.6955 25.5605C11.6662 25.3154 11.6326 25.0716 11.5964 24.8277C11.579 24.7046 11.564 24.5814 11.549 24.4582C11.4661 23.9148 11.3246 23.6456 10.91 23.2835C10.703 23.0953 10.5933 22.8954 10.4798 22.6441C10.4599 22.6039 10.4399 22.5636 10.4194 22.5222C10.0821 21.8209 10.006 21.0021 10.0721 20.2364C10.1133 20.1956 10.1548 20.1543 10.1968 20.1126C10.5135 20.1448 10.6887 20.3782 10.8826 20.6078C11.0378 20.8294 11.18 21.0571 11.319 21.2886C11.3813 21.392 11.4437 21.4947 11.506 21.5981C11.5154 21.5504 11.5241 21.5034 11.5335 21.4545C11.5746 21.2391 11.6164 21.0243 11.6575 20.8089C11.6719 20.7341 11.6862 20.6598 11.7012 20.5824C11.7149 20.5106 11.7288 20.438 11.7429 20.3646C11.7554 20.2983 11.7685 20.2321 11.7816 20.164C11.8053 20.0468 11.8306 19.942 11.8576 19.8496C11.8813 19.7712 11.8657 19.6883 11.8109 19.6008C11.7772 19.5513 11.7436 19.5017 11.7086 19.4504C11.1644 18.5975 11.1737 17.5997 11.3383 16.6305C11.3458 16.5853 11.3533 16.5407 11.3608 16.4943C11.3944 16.3148 11.425 16.1756 11.5366 16.0283C11.5997 15.9862 11.6714 15.9639 11.7517 15.9614C12.1681 16.1743 12.3034 16.7964 12.4412 17.203C12.4911 17.3887 12.5303 17.5713 12.5659 17.7601C12.5945 17.6944 12.6232 17.6288 12.6525 17.5608C12.6712 17.5187 12.6893 17.4766 12.7086 17.4333C12.7485 17.341 12.7884 17.2494 12.8283 17.1572C12.9281 16.9276 13.031 16.7196 13.17 16.511C13.2535 16.3501 13.256 16.2913 13.2111 16.1124C13.1887 16.0499 13.1662 15.9874 13.1426 15.923C12.8171 15.0163 12.9543 14.0538 13.314 13.1805C13.3402 13.1155 13.3664 13.0512 13.3932 12.9843C13.485 12.7797 13.5625 12.6387 13.6257 12.5616C13.7363 12.5306 13.8402 12.51 13.9374 12.4997C14.2354 13.1719 14.324 13.7487 14.3115 14.4803H14.4362C14.4543 14.4351 14.4724 14.3905 14.4911 14.3441C14.5341 14.2371 14.5777 14.13 14.6214 14.0223C14.6413 13.9728 14.6613 13.9232 14.6818 13.8725C14.7018 13.8236 14.7217 13.7747 14.7417 13.7246C14.7791 13.6299 14.8159 13.5339 14.8489 13.4374C14.9593 13.1199 15.1089 12.8661 15.309 12.5962C15.3364 12.5579 15.3641 12.5189 15.3919 12.4793C15.5283 12.2919 15.6669 12.175 15.8078 12.1283V12.0045C15.9468 11.8888 16.0858 11.7811 16.2323 11.6759C16.2747 11.6456 16.3171 11.6146 16.3608 11.583C16.9734 11.1506 17.4125 10.9816 17.6781 11.0761Z" fill="black"/>
</g>
<defs>
<clipPath id="clip0_6_67">
<rect width="29" height="27" fill="white" transform="translate(10 11)"/>
</clipPath>
</defs>
</svg>
