<svg width="27" height="28" viewBox="0 0 27 28" fill="none" xmlns="http://www.w3.org/2000/svg">
<path d="M8.91943 8.72835C11.6429 6.92074 14.636 6.66203 17.853 7.20686C17.8454 7.21251 17.8382 7.2188 17.8306 7.22444L17.812 7.23811L17.7944 7.25276C17.2247 7.75948 17.1325 8.38155 17.1128 8.9344L17.1118 8.9471L17.1128 8.95882L17.1167 9.32307C17.1171 9.36761 17.1173 9.41214 17.1177 9.45686C16.7797 9.45259 16.442 9.44956 16.105 9.4471C15.934 9.44556 15.7631 9.44298 15.5923 9.44026C13.5476 9.40859 11.5569 9.7124 9.80615 10.8797L9.45947 11.1248C9.35246 11.2018 9.2455 11.279 9.13525 11.3582L9.12549 11.3651L9.1167 11.3719C8.69051 11.7084 8.41816 12.09 8.1665 12.4764C8.12351 12.5404 8.08092 12.6048 8.03662 12.6707L8.03467 12.6727C7.8032 13.0218 7.59269 13.3769 7.40479 13.7586C7.36071 13.8368 7.33205 13.8864 7.31006 13.9227C7.25314 13.9288 7.24249 13.9305 7.22705 13.9295C7.18915 13.9271 7.13414 13.9187 6.93994 13.8836L6.91846 13.8797L6.89795 13.8778L6.73779 13.867C6.21812 13.8469 5.78331 13.9761 5.38818 14.1854C5.49264 12.5831 6.2262 11.3119 7.46436 9.99397L7.47412 9.98421L7.48291 9.97249C7.56535 9.87404 7.64814 9.77587 7.73291 9.67464C8.0006 9.37247 8.31593 9.13696 8.70264 8.87483H8.70361C8.81109 8.80177 8.8121 8.79968 8.91846 8.72737L8.91943 8.72835Z" fill="black" stroke="black"/>
<path d="M15.3811 11.3283C17.0523 11.0745 18.7322 11.2483 20.0715 12.1144C20.2496 12.2491 20.4247 12.3871 20.5959 12.5285L20.5969 12.5295C20.6784 12.5964 20.7603 12.6629 20.844 12.7316V12.7326C22.0671 13.8107 22.894 15.227 23.4885 16.7433L23.4895 16.7463C24.0405 18.1278 24.8527 19.3292 25.7024 20.4933V20.4924C25.7375 20.5413 25.7724 20.5903 25.8079 20.6398C25.4747 20.6073 25.1439 20.5708 24.8157 20.5226L24.8118 20.5217L24.6174 20.4943C24.5575 20.4661 24.5355 20.446 24.5188 20.425C24.5022 20.4041 24.4825 20.374 24.4524 20.3215C24.4373 20.2952 24.4216 20.2661 24.4026 20.2316C24.3882 20.2055 24.372 20.1765 24.3547 20.1457C24.2747 19.9554 24.1992 19.7626 24.1282 19.5676V19.5666L23.9963 19.2072C23.9524 19.0852 23.9088 18.9628 23.8635 18.8371L23.8625 18.8351L23.7258 18.4611C23.3661 17.4734 23.3742 17.4965 23.2825 17.1242L23.2034 16.8L22.8733 16.7492C22.1495 16.6379 21.7368 16.5733 21.3264 16.5724C20.9147 16.5716 20.5113 16.635 19.8079 16.7433L19.7014 16.7599L19.6106 16.8195C19.518 16.88 19.4141 16.9448 19.3167 17.0451C19.2306 17.1338 19.1533 17.2467 19.0647 17.3732L19.0042 17.4601L18.9836 17.5636C18.96 17.6833 18.9319 17.811 18.9319 17.9367C18.9319 18.0721 18.9631 18.195 18.9866 18.2951L19.0344 18.4963L19.2102 18.6056C20.2012 19.2193 21.3121 19.3924 22.3499 19.5304C22.3532 19.5316 22.3565 19.5323 22.3596 19.5334C22.4311 19.7033 22.4659 19.849 22.4934 20.0627V20.0646C22.5054 20.1544 22.5172 20.2447 22.5295 20.3371V20.3381C22.5419 20.4366 22.5549 20.5354 22.5676 20.6369V20.6408L22.6096 20.9543L22.7375 21.9465L22.9075 23.2433C22.9281 23.4009 22.9274 23.4013 22.9485 23.5627L22.9495 23.5636C23.0515 24.3304 23.1708 25.0936 23.3098 25.8556V25.8566C23.3807 26.2539 23.4158 26.6411 23.4182 27.0334C23.299 26.9899 23.1801 26.9448 23.0598 26.8967L23.0569 26.8957L22.8079 26.797C21.2718 26.1817 20.5285 25.8839 20.0022 25.6301C19.4926 25.3843 19.192 25.1827 18.5344 24.7404L18.5315 24.7384L18.1829 24.507C17.6848 24.1675 17.4682 24.0192 17.3313 23.9045C17.2186 23.81 17.1708 23.7486 17.0139 23.5402L16.9944 23.5138L16.9709 23.4904L16.7288 23.2433L16.5706 23.0812L16.344 23.0949C15.8019 23.1254 15.278 23.2488 14.7932 23.3761L14.3254 23.5002L13.6584 23.672C13.3103 23.7619 12.9617 23.8515 12.6135 23.9426C12.278 24.0301 11.9419 24.1171 11.6047 24.2033L11.5999 24.2043C11.4962 24.2318 11.3922 24.2589 11.2854 24.2873C11.19 24.3115 11.0946 24.3366 10.9963 24.3615H10.9934C10.9211 24.3803 10.8486 24.3989 10.7747 24.4181C10.7063 24.4265 10.6435 24.4275 10.5784 24.424C10.6433 23.1666 10.6761 22.4597 10.6184 21.759C10.557 21.0137 10.3943 20.2807 10.0911 18.9035L10.0862 18.881L10.0793 18.8576L10.0129 18.634C9.70312 17.495 9.72729 16.0755 10.1819 15.0529L10.1829 15.05C10.2249 14.9537 10.2666 14.8569 10.3098 14.758C10.6541 14.0465 11.1068 13.5013 11.7268 12.9259L11.7366 12.9172C11.7954 12.8596 11.8537 12.8016 11.9143 12.7424C12.7397 12.0066 13.936 11.6036 15.1321 11.3859L15.1438 11.384L15.1545 11.381C15.2294 11.3638 15.3044 11.346 15.3811 11.3283Z" fill="black" stroke="black"/>
<path d="M8.10742 2.01953C12.4458 -0.0205477 18.3566 -0.0558342 22.626 2.2207C22.6227 2.22823 22.6202 2.23875 22.6143 2.25098C22.5886 2.30364 22.5588 2.3555 22.5049 2.45801L22.5039 2.46094C22.4531 2.55889 22.4019 2.65689 22.3496 2.75781C22.2949 2.86085 22.24 2.96416 22.1836 3.07031L22.1826 3.07324C22.0697 3.28931 21.9565 3.50553 21.8438 3.72168C21.7874 3.82914 21.7309 3.93713 21.6729 4.04785L21.6709 4.0498L21.2363 4.92383C21.1969 5.00528 21.1578 5.08698 21.1172 5.1709L21.1162 5.17188C21.0434 5.3231 20.9716 5.47485 20.9004 5.62695C20.8507 5.72924 20.7946 5.83083 20.7354 5.93555C20.7101 5.94084 20.7074 5.94027 20.71 5.94043C20.7063 5.93977 20.696 5.93814 20.6758 5.93164C20.6366 5.91902 20.5862 5.89883 20.4961 5.86328L20.4893 5.86133L20.2363 5.76465H20.2354C20.146 5.73053 20.0569 5.69629 19.9648 5.66113L19.9551 5.6582L19.6504 5.55273C16.4909 4.50845 12.945 4.66507 9.83398 5.67871C9.73391 5.71032 9.63337 5.74185 9.53027 5.77441L9.51953 5.77832C6.82457 6.70175 4.99219 8.75846 3.8252 11.0713L3.81836 11.083L3.81348 11.0957C3.23799 12.411 3.17097 13.6274 3.23242 14.9062L3.26562 15.459C3.41748 17.7149 3.50861 19.7603 2.76172 21.8057L2.75684 21.8174C2.72716 21.9054 2.69753 21.9935 2.66699 22.084C2.33397 22.9701 1.67417 23.9008 0.902344 24.6074C1.39883 22.789 1.50658 20.9883 1.26172 19.0977H1.2627C1.24815 18.9816 1.23276 18.8657 1.21777 18.7461V18.7441C1.16261 18.3165 1.10146 17.8905 1.03613 17.4658L0.830078 16.1943C0.676825 15.2819 0.542472 14.4182 0.518555 13.5322V13.5312L0.511719 13.2812C0.485357 12.1702 0.486857 11.1441 0.726562 10.1201L0.727539 10.1143C0.753723 9.99629 0.780687 9.87816 0.807617 9.75684C1.23978 8.03044 2.20103 6.64759 3.46582 5.31152L4.02539 4.74121L4.03223 4.73438C4.09776 4.66732 4.16295 4.59838 4.23047 4.5293C5.24713 3.52131 6.515 2.78147 7.87793 2.12988L7.87891 2.12891C7.95427 2.09274 8.02984 2.05676 8.10742 2.01953Z" fill="black" stroke="black"/>
</svg>
