<svg width="29" height="27" viewBox="0 0 29 27" fill="none" xmlns="http://www.w3.org/2000/svg">
<g clip-path="url(#clip0_7_73)">
<path d="M7.67809 0.0761266C7.76724 0.838041 7.25477 1.58448 6.80153 2.157C6.40752 2.61564 5.95552 2.99071 5.39879 3.23643C4.96924 3.45554 4.73981 3.94945 4.49854 4.34681C4.55901 4.31772 4.61886 4.28863 4.68121 4.2583C5.43121 3.89994 6.01911 3.69197 6.86762 3.72787C6.89754 4.06705 6.76225 4.20445 6.55278 4.45636C6.39442 4.63647 6.23545 4.80482 6.05714 4.96575H5.93245V5.08954C5.80901 5.13039 5.68557 5.17124 5.55839 5.21332V5.33711C5.45178 5.38663 5.34517 5.43552 5.23919 5.48442C5.17996 5.51165 5.12073 5.53889 5.05964 5.56736C4.73628 5.70559 4.48087 5.76975 4.29343 5.75985C4.03969 5.74995 3.83644 5.74685 3.62634 5.89478C3.32522 6.31875 3.0029 6.97792 3.0029 7.50402C3.03657 7.47307 3.06961 7.44274 3.1039 7.41118C3.42622 7.13389 3.74792 6.93398 4.13632 6.76562C4.17747 6.74768 4.21924 6.72911 4.26163 6.71054C4.52846 6.59975 4.77161 6.54343 5.05964 6.51434C5.10743 6.58201 5.149 6.66453 5.18432 6.76191C5.14692 6.87745 5.09746 6.99608 5.03595 7.1178C5.00602 7.17846 4.9761 7.23973 4.94492 7.30225C4.92123 7.34867 4.89692 7.39509 4.8726 7.44274H4.74792C4.70677 7.56529 4.66562 7.68784 4.62323 7.81411H4.49854C4.48171 7.85063 4.46425 7.88776 4.44679 7.92552C4.14255 8.4937 3.44804 8.85702 2.85577 9.06313C2.69742 9.10645 2.54031 9.14483 2.37884 9.17639C2.24667 9.89436 2.15939 10.6185 2.06712 11.3427C2.09642 11.3 2.12634 11.2573 2.15627 11.2133C2.56649 10.6346 3.03283 10.051 3.68807 9.73344C3.83603 9.71776 3.96072 9.71776 4.06213 9.73344C4.0933 10.6649 3.65752 11.4572 3.09704 12.1733C3.06587 12.2055 3.03428 12.2381 3.00228 12.2711H2.87759V12.3949C2.76911 12.4846 2.65689 12.5688 2.54218 12.6499C2.47984 12.6949 2.41708 12.7402 2.3539 12.786C2.24584 12.8554 2.15024 12.89 2.06712 12.89C2.10577 13.1599 2.14505 13.4291 2.18432 13.6984C2.19492 13.7745 2.20614 13.8506 2.21737 13.9286C2.27098 14.2925 2.32522 14.6441 2.44181 14.9938C2.56899 14.8044 2.59143 14.706 2.63258 14.4869C2.77098 13.9014 3.10577 13.3852 3.43931 12.8894C3.56899 12.8816 3.69368 12.8816 3.81338 12.8894C4.07772 13.9039 4.06026 14.9059 3.564 15.8603C3.46986 16.0101 3.3726 16.1556 3.26911 16.2992C3.20926 16.3813 3.16209 16.4826 3.12759 16.6031C3.19181 16.7435 3.25914 16.8698 3.33831 17.0016C3.36076 17.04 3.3832 17.0778 3.40565 17.1168C3.60577 17.451 3.83395 17.7574 4.07647 18.0619C4.15087 18.1622 4.20885 18.2742 4.25041 18.398H4.3751C4.35452 18.3571 4.33395 18.3163 4.31275 18.2742C4.22381 17.1671 4.30693 16.4038 4.56213 15.9841C4.65107 15.9503 4.7342 15.9296 4.81151 15.9222C5.38383 16.5325 5.59767 17.4572 5.57896 18.2705C5.55091 18.5496 5.48295 18.8145 5.40752 19.0844C5.37011 19.2793 5.36824 19.3877 5.43495 19.574C5.85764 20.0685 6.46487 20.4374 6.99355 20.8118C6.97111 20.7568 6.94866 20.7017 6.9256 20.6453C6.72485 20.1118 6.65253 19.626 6.65502 19.0559C6.65502 18.9928 6.65502 18.9303 6.65502 18.8653C6.66126 18.5657 6.71176 18.3689 6.80652 18.2748C7.00976 18.2829 7.09767 18.3175 7.24667 18.4562C7.52348 18.8108 7.74854 19.1624 7.92871 19.5746C7.95053 19.6241 7.97235 19.6742 7.9948 19.7256C8.21238 20.3167 8.24604 21.0031 8.11575 21.6171C8.16188 21.6344 8.20801 21.6511 8.2554 21.6691C8.4125 21.7347 8.54156 21.8077 8.68432 21.8993C9.13507 22.1729 9.61575 22.3846 10.0945 22.6043C10.2161 22.66 10.3377 22.7169 10.4586 22.7739C11.2778 23.157 12.1051 23.4584 12.9686 23.7264C13.3994 23.8601 13.8209 24.0049 14.2392 24.1721C14.6301 24.2723 15.0048 24.0854 15.3701 23.953C15.7654 23.8125 16.1606 23.6788 16.5621 23.5581C16.9798 23.4312 17.3782 23.2771 17.7778 23.1013C17.8645 23.0642 17.9518 23.0264 18.0384 22.9893C18.92 22.608 19.7747 22.1933 20.602 21.7068C20.7142 21.6462 20.8119 21.6158 20.895 21.6158C20.8851 21.5837 20.8751 21.5509 20.8645 21.5174C20.6625 20.5717 20.9699 19.6092 21.4605 18.804C21.5004 18.7514 21.5397 18.6988 21.5808 18.6443H21.7055C21.7236 18.6059 21.7417 18.5676 21.7604 18.528C21.8069 18.4405 21.8718 18.3555 21.9549 18.2729C22.0638 18.2886 22.1677 18.3093 22.2666 18.3348C22.4212 19.1791 22.3028 20.0054 22.0172 20.8106C22.0609 20.7747 22.1049 20.7386 22.1494 20.7023C22.2061 20.6565 22.2629 20.6107 22.3215 20.563C22.378 20.5172 22.4349 20.4708 22.4923 20.4238C22.5912 20.3516 22.6822 20.3154 22.7654 20.3154V20.1917C22.8352 20.1294 22.9158 20.065 23.0073 19.9986C23.0522 19.9651 23.097 19.9317 23.1432 19.8977C23.2242 19.8465 23.3063 19.8209 23.3894 19.8209V19.6971H23.5141C23.6382 19.4236 23.6345 19.2701 23.5509 18.9866C23.3177 18 23.4992 17.0004 23.9842 16.119C24.0449 16.0287 24.1168 15.9629 24.1999 15.9216C24.283 15.9216 24.3562 15.9451 24.4194 15.9922C24.877 16.5641 24.7167 17.6534 24.6987 18.3355C24.799 18.2092 24.8988 18.0829 24.9985 17.9567C25.0266 17.9214 25.0546 17.8861 25.084 17.8496C25.256 17.6299 25.3919 17.4145 25.5091 17.1595H25.6338C25.6413 17.1236 25.6494 17.0883 25.6575 17.0512C25.6833 16.9583 25.7197 16.8706 25.7666 16.7881C25.8364 16.6303 25.814 16.5783 25.7591 16.4167C25.703 16.3208 25.6444 16.2267 25.584 16.1345C25.0116 15.2067 24.8645 14.1192 25.1027 13.0596C25.1251 12.987 25.1571 12.9301 25.1987 12.8888C25.2976 12.8772 25.4015 12.8772 25.5104 12.8888C25.6687 13.0274 25.7716 13.2075 25.8844 13.3839C25.9125 13.4267 25.9399 13.4687 25.9686 13.5127C26.2666 14.0023 26.4225 14.5544 26.5079 15.117C26.7317 14.3829 26.8483 13.6489 26.9443 12.8888C26.8969 12.8708 26.8502 12.8529 26.8015 12.8343C26.6002 12.7514 26.4337 12.6462 26.2585 12.5174V12.3936C26.2217 12.3775 26.1843 12.3615 26.1463 12.3454C25.9979 12.2637 25.915 12.182 25.8065 12.0532C25.7741 12.0155 25.7417 11.9777 25.708 11.9393C25.6594 11.8708 25.6351 11.7953 25.6351 11.7128H25.5104C25.4399 11.5674 25.3695 11.4213 25.2997 11.2758C25.2797 11.235 25.2604 11.1948 25.2398 11.1527C25.0634 10.7825 24.93 10.4304 24.9412 10.0151C24.9424 9.96183 24.9437 9.90798 24.9443 9.85289C24.9455 9.81328 24.947 9.77326 24.9487 9.73282C25.2585 9.70868 25.4088 9.76005 25.6581 9.94202C25.7124 9.98102 25.7672 10.0194 25.8234 10.0596C25.8639 10.0949 25.9044 10.1302 25.9468 10.1667V10.2905L26.064 10.3369C26.2186 10.4273 26.256 10.4997 26.3209 10.6618H26.4455C26.5175 10.7522 26.5927 10.8554 26.6712 10.9713C26.7107 11.0287 26.7504 11.0866 26.7903 11.1452C26.8202 11.1898 26.8502 11.2344 26.8813 11.2808C26.8975 10.8129 26.8358 10.3759 26.7566 9.91541C26.7448 9.84423 26.733 9.77305 26.7205 9.6994C26.6912 9.52486 26.6619 9.35093 26.632 9.17639C26.5553 9.15783 26.478 9.13926 26.3988 9.12069C25.4911 8.89416 24.7186 8.33649 24.2005 7.56715C23.9416 7.13472 23.8242 6.83866 23.8483 6.67897C23.8614 6.64493 23.8751 6.61151 23.8888 6.57685C24.1793 6.48401 24.3826 6.55952 24.6525 6.6734C24.6937 6.69011 24.7348 6.70744 24.7778 6.72478C25.2373 6.91974 25.6263 7.1865 26.0085 7.50526C25.9038 7.07633 25.7392 6.70064 25.531 6.31318C25.4387 6.13926 25.3851 6.03404 25.3851 5.83412C25.3315 5.8335 25.2778 5.83226 25.2224 5.83165C24.3639 5.79698 23.713 5.51722 23.016 5.0295C22.9686 4.9969 22.9206 4.9641 22.872 4.93109C22.8371 4.902 22.8022 4.87353 22.7666 4.84382V4.72003C22.7317 4.70848 22.6966 4.69692 22.6613 4.68537C22.453 4.55663 22.3271 4.37281 22.2055 4.16298V4.0392H22.0808C22.1014 3.93707 22.122 3.83495 22.1432 3.72973C22.9636 3.67588 23.675 3.88941 24.3876 4.28677V4.41056L24.5123 4.34867C24.4674 4.28739 24.4225 4.22673 24.3757 4.1636C24.3171 4.08376 24.2585 4.0033 24.2005 3.92345C24.1706 3.88322 24.1413 3.84299 24.1101 3.80152C23.9626 3.5981 23.8888 3.45058 23.8888 3.35898C23.8321 3.34103 23.7753 3.32308 23.7174 3.30451C23.5571 3.24943 23.4144 3.19063 23.2654 3.11141V2.98762C23.1419 2.94677 23.0185 2.90592 22.8913 2.86383V2.74004C22.8558 2.72457 22.8202 2.70848 22.7835 2.69238C22.0472 2.29379 21.5734 1.33814 21.3327 0.573754C21.2947 0.422114 21.2772 0.297707 21.2704 0.140496C21.3115 0.0996463 21.3527 0.0587963 21.395 0.0167084C21.6906 0.0346576 21.8932 0.13245 22.1432 0.283471C22.208 0.322464 22.2722 0.361458 22.3389 0.401689C22.398 0.438 22.4574 0.474724 22.5172 0.51186C22.5605 0.537855 22.6043 0.564264 22.6488 0.591084C22.717 0.633585 22.7978 0.689702 22.8913 0.759436V0.883224C22.9281 0.899935 22.9655 0.916646 23.0035 0.933977C23.7392 1.32391 24.0952 2.23623 24.3676 2.974C24.4406 3.1504 24.5135 3.27666 24.6369 3.42026C24.6388 3.36331 24.6401 3.30637 24.6419 3.24757C24.6835 2.32783 24.8273 1.74582 25.0734 1.50154C25.1756 1.50608 25.2795 1.52671 25.3851 1.56344C25.9337 2.24056 26.0677 3.38622 26.0085 4.22488C25.9493 4.54673 25.8676 4.86239 25.7803 5.17805C25.7554 5.36868 25.7866 5.44914 25.8714 5.61997C25.8963 5.67113 25.9214 5.72292 25.9468 5.77532C25.9736 5.82793 26.0004 5.88054 26.0278 5.93501C26.054 5.98824 26.0796 6.04147 26.1064 6.09593C26.2105 6.30699 26.3134 6.50505 26.4443 6.70064C26.458 6.64246 26.4717 6.58366 26.4854 6.52362C26.6604 5.80689 26.8545 5.30885 27.0677 5.0295C27.1746 4.9903 27.2785 4.96967 27.3795 4.96761C27.7666 5.35197 27.7585 6.16216 27.7691 6.67712C27.7548 7.29049 27.6706 7.99979 27.2791 8.49927C27.1388 8.69238 27.1638 8.88797 27.1924 9.1145C27.2348 9.30204 27.2835 9.4871 27.334 9.67278C27.395 9.91974 27.4175 10.1617 27.4418 10.4143C27.4624 10.4551 27.483 10.496 27.5042 10.5381C27.5235 10.4978 27.5422 10.457 27.5621 10.4155C27.7454 10.0528 27.9555 9.7421 28.2255 9.43944C28.2541 9.40602 28.283 9.37239 28.3121 9.33856C28.3687 9.27749 28.4528 9.2028 28.5646 9.1145C28.7375 9.1211 28.8622 9.16236 28.9387 9.23829C29.011 10.3344 28.8134 11.4095 28.1126 12.2872C27.9998 12.3986 27.9 12.4574 27.7541 12.5187V12.6425C27.6926 12.6833 27.6303 12.7246 27.5671 12.7662C27.5389 12.8661 27.5199 12.9748 27.5104 13.0924C27.5029 13.1574 27.4954 13.223 27.4873 13.2899C27.4805 13.3586 27.473 13.4267 27.4661 13.4972C27.4512 13.6315 27.4362 13.7664 27.4206 13.9008C27.4144 13.9608 27.4081 14.0202 27.4013 14.0821C27.3807 14.2443 27.352 14.4015 27.3177 14.5612C27.3473 14.5343 27.377 14.5073 27.4069 14.4801C27.4455 14.4454 27.4848 14.4114 27.5247 14.3755C27.5628 14.3408 27.6014 14.3068 27.6407 14.2709C27.7163 14.2168 27.8165 14.1898 27.9412 14.1898V14.066C28.0484 14.0134 28.1563 13.962 28.2647 13.9113C28.3246 13.8828 28.3851 13.8537 28.4468 13.824C28.6276 13.7559 28.7479 13.7374 28.9387 13.7565C28.9593 13.777 28.9798 13.7974 29.001 13.8184C28.9867 14.5884 28.4649 15.2928 27.9655 15.8492C27.9077 15.8983 27.8373 15.9228 27.7541 15.9228V16.0466C27.4649 16.2948 27.1638 16.4786 26.7997 16.5919C26.5285 16.6872 26.4406 16.7974 26.3128 17.0524C26.2716 17.1496 26.2323 17.2474 26.1955 17.3464H26.0709C26.0559 17.4002 26.0403 17.4541 26.0247 17.5092C25.9406 17.7332 25.834 17.8911 25.6893 18.0811C25.6444 18.1411 25.5989 18.2005 25.5522 18.2624C25.5179 18.307 25.483 18.3522 25.4474 18.3986C25.501 18.3899 25.5546 18.3806 25.6101 18.3714C26.4929 18.234 27.1037 18.243 27.4424 18.3986C27.4374 18.5639 27.4113 18.674 27.2984 18.7984C27.1837 18.8981 27.0659 18.9897 26.9437 19.0794C26.9 19.1116 26.857 19.1438 26.8121 19.1766C26.1494 19.6408 25.4431 19.8457 24.6369 19.8296C24.5827 19.8296 24.5285 19.8283 24.4724 19.8277C24.3402 19.8265 24.208 19.824 24.0758 19.8215C24.0584 19.8599 24.0409 19.8977 24.0229 19.9373C23.925 20.118 23.7934 20.2127 23.632 20.3402C23.5709 20.3885 23.5098 20.4368 23.4474 20.4863C23.223 20.6596 22.9967 20.831 22.7672 20.9975C22.8121 20.9963 22.8564 20.9944 22.9025 20.9932C23.5129 20.982 24.1263 21.0229 24.6999 21.2451C24.7465 21.3227 24.7672 21.4052 24.7623 21.4927C24.2828 22.0435 23.3595 22.2583 22.6581 22.3171C22.0964 22.3264 21.6108 22.2379 21.084 22.0497V22.1735C20.8813 22.2843 20.6787 22.3951 20.4761 22.5065C20.4187 22.5381 20.3614 22.5696 20.3022 22.6018C20.2467 22.6321 20.1912 22.6625 20.1338 22.6934C20.0827 22.7215 20.0312 22.7495 19.9792 22.7776C19.8495 22.8469 19.7192 22.9131 19.5871 22.9781C19.6257 22.9917 19.6638 23.0054 19.7037 23.019C20.1731 23.1935 20.6862 23.4033 20.9586 23.8446C20.9379 23.9556 20.8963 24.0588 20.834 24.1541C20.2211 24.3243 19.5353 24.2414 18.9792 23.9449C18.819 23.8533 18.7018 23.7698 18.5684 23.6404C18.4595 23.5537 18.3354 23.5308 18.1962 23.5717C18.1226 23.6014 18.049 23.6317 17.9736 23.6621C17.9007 23.6911 17.8271 23.7196 17.7523 23.7493C17.6139 23.8081 17.4767 23.8682 17.3402 23.9301C16.9692 24.0885 16.5783 24.1987 16.1937 24.32C16.1114 24.346 16.0297 24.372 15.9474 24.398C15.7479 24.4611 15.5478 24.5242 15.3483 24.5868C15.4194 24.6189 15.4904 24.6511 15.5634 24.6845C16.3209 25.033 17.0528 25.4167 17.7797 25.8246V25.9484C17.8152 25.9558 17.8514 25.9633 17.8882 25.9707C18.1301 26.0388 18.3327 26.1638 18.5278 26.3198C18.5823 26.4229 18.6031 26.5261 18.5902 26.6293C18.4256 26.8341 18.2947 26.9684 18.0291 27.0006C17.8763 26.9121 17.7417 26.8224 17.6002 26.7184C17.511 26.6552 17.4212 26.5921 17.3315 26.5296C17.2835 26.4956 17.2348 26.4615 17.1856 26.4269C16.5085 25.9583 15.8115 25.5059 15.0677 25.1481C15.0253 25.1271 14.9836 25.1067 14.9399 25.085C14.67 24.9618 14.5116 24.9538 14.2261 25.0206C14.1147 25.0656 14.0046 25.1174 13.8957 25.176C13.8346 25.2075 13.7735 25.2391 13.7111 25.2719C13.6482 25.3053 13.5858 25.3381 13.521 25.3728C13.4593 25.405 13.3969 25.4372 13.3333 25.47C12.9499 25.6705 12.5871 25.8884 12.2317 26.1347C12.1756 26.1731 12.1201 26.2108 12.0628 26.2505C12.0172 26.2826 11.9711 26.3142 11.9243 26.3476C11.8726 26.3835 11.8215 26.4188 11.7685 26.4559C11.6581 26.5339 11.5484 26.6138 11.4399 26.6942C11.3851 26.7345 11.3302 26.7747 11.2741 26.8156C11.2248 26.8527 11.1756 26.8898 11.1245 26.9276C11.0318 26.9767 10.9416 26.9977 10.8539 26.9907C10.6619 26.9072 10.554 26.7914 10.4243 26.6299C10.4214 26.5325 10.4422 26.4293 10.4867 26.3204C10.6288 26.204 10.7604 26.11 10.9156 26.0146C10.958 25.9874 11.001 25.9608 11.0447 25.9323C11.6868 25.5288 12.3601 25.2063 13.049 24.89C13.16 24.838 13.2697 24.7823 13.3788 24.7266C13.4873 24.6746 13.5831 24.6486 13.6662 24.6486V24.5249C13.6151 24.5174 13.5646 24.5106 13.5116 24.5032C13.2579 24.4568 13.0166 24.3893 12.7697 24.3163C12.7248 24.3033 12.6806 24.2903 12.6344 24.2773C12.2298 24.1584 11.8402 24.0186 11.4568 23.8422C11.1309 23.6759 10.7945 23.5888 10.4474 23.581C10.3651 23.6441 10.2893 23.7145 10.2199 23.792C9.92373 24.1071 9.44742 24.2018 9.03096 24.2228C8.69991 24.2315 8.42996 24.1993 8.11699 24.0916C8.10411 23.9781 8.10411 23.8543 8.11699 23.7202C8.21591 23.622 8.31982 23.5395 8.42871 23.4727H8.5534V23.3489C8.82086 23.2263 9.08831 23.1038 9.36388 22.9775C9.27659 22.9305 9.18994 22.8834 9.10016 22.8352C8.98545 22.7733 8.87073 22.7107 8.75602 22.6489C8.69866 22.6179 8.64131 22.587 8.58208 22.5554C8.5268 22.5253 8.47069 22.4949 8.41375 22.4644C8.36263 22.4366 8.31213 22.4093 8.25914 22.3809C8.16396 22.3251 8.0721 22.2626 7.98358 22.1933C7.90585 22.1269 7.80984 22.1036 7.69555 22.1234C7.55403 22.1587 7.41375 22.1976 7.27472 22.2397C6.28969 22.483 5.35265 22.1549 4.47734 21.7273C4.36803 21.6538 4.29363 21.5738 4.25415 21.4871C4.25207 21.4083 4.27181 21.3276 4.31338 21.2451C4.91001 21.0285 5.55403 20.9975 6.1837 20.9975C6.0746 20.9084 5.9655 20.8193 5.85639 20.7308C5.79592 20.6812 5.73482 20.6317 5.67248 20.5804C5.56774 20.4962 5.46113 20.4145 5.35078 20.3371C5.31712 20.3099 5.28304 20.2824 5.24854 20.2548V20.131C5.21238 20.1143 5.17684 20.0976 5.13944 20.0809C5.04592 20.0318 4.96425 19.9746 4.89442 19.9094C4.68744 19.7832 4.53033 19.8123 4.28969 19.8252C3.59829 19.8457 2.98295 19.6612 2.38071 19.3264V19.2026C2.33956 19.1908 2.29841 19.1797 2.25602 19.1679C1.99168 19.0423 1.7554 18.8727 1.57023 18.6456C1.56068 18.5329 1.56068 18.4297 1.57023 18.3361C2.25353 18.182 2.89754 18.2928 3.56525 18.4599C3.39442 18.202 3.21778 17.948 3.03532 17.698C2.93432 17.5636 2.86886 17.4448 2.8034 17.2888C2.69409 17.0239 2.53366 16.7993 2.32211 16.6148C2.1357 16.5399 1.94866 16.4786 1.75789 16.4174C1.69617 16.3765 1.63445 16.3357 1.57086 16.2936V16.1698C1.5241 16.1537 1.47797 16.1376 1.42996 16.1209C0.749163 15.8232 0.325222 14.9579 0.0502848 14.3099C-0.0027077 14.1428 -0.0058249 13.9911 0.0122549 13.8178C0.224225 13.7479 0.315247 13.7528 0.527841 13.8314C0.600576 13.869 0.674142 13.9069 0.748539 13.9453C0.820858 13.9818 0.893178 14.0184 0.967991 14.0561C1.22859 14.1997 1.46113 14.3786 1.69555 14.5605C1.66624 14.3154 1.63258 14.0716 1.59642 13.8277C1.57896 13.7046 1.564 13.5814 1.54904 13.4582C1.46612 12.9148 1.3246 12.6456 0.910011 12.2835C0.703028 12.0953 0.593302 11.8954 0.479836 11.6441C0.459886 11.6039 0.439936 11.5636 0.419362 11.5222C0.0820803 10.8209 0.00602049 10.0021 0.0721053 9.23643C0.113252 9.19558 0.154815 9.15432 0.196794 9.11264C0.513502 9.14483 0.688689 9.37817 0.882579 9.60779C1.03782 9.82937 1.17996 10.0571 1.31899 10.2886C1.38133 10.392 1.44368 10.4947 1.50602 10.5981C1.51537 10.5504 1.5241 10.5034 1.53345 10.4545C1.5746 10.2391 1.61637 10.0243 1.65752 9.80895C1.67186 9.73406 1.6862 9.65979 1.70116 9.58242C1.71487 9.51062 1.7288 9.438 1.74293 9.36455C1.7554 9.29833 1.76849 9.2321 1.78158 9.16401C1.80527 9.04683 1.83063 8.94202 1.85764 8.84959C1.88133 8.77119 1.86575 8.68826 1.81088 8.60078C1.77722 8.55127 1.74355 8.50175 1.70864 8.45038C1.16437 7.59748 1.17373 6.59975 1.33831 5.63049C1.3458 5.58531 1.35328 5.54074 1.36076 5.49432C1.39442 5.31483 1.42497 5.17557 1.53657 5.02826C1.59974 4.98617 1.67144 4.96389 1.75166 4.96142C2.16812 5.17433 2.3034 5.79637 2.44118 6.20301C2.49106 6.38869 2.53033 6.57128 2.56587 6.76005C2.59455 6.69445 2.62323 6.62884 2.65253 6.56076C2.67123 6.51867 2.68931 6.47658 2.70864 6.43325C2.74854 6.34103 2.78844 6.24943 2.82834 6.15721C2.92809 5.92758 3.03096 5.71962 3.16999 5.51103C3.25353 5.35011 3.25602 5.29131 3.21113 5.11244C3.18869 5.04992 3.16624 4.98741 3.14255 4.92304C2.81712 4.0163 2.95427 3.05384 3.314 2.18052C3.34018 2.11553 3.36637 2.05116 3.39318 1.98432C3.48503 1.77965 3.56255 1.63874 3.62572 1.56158C3.73628 1.53063 3.84018 1.51 3.93744 1.49969C4.23545 2.17186 4.32398 2.74871 4.31151 3.48029H4.4362C4.45427 3.43511 4.47235 3.39055 4.49106 3.34413C4.53408 3.23705 4.57772 3.12997 4.62136 3.02228C4.64131 2.97276 4.66126 2.92325 4.68183 2.8725C4.70178 2.8236 4.72173 2.7747 4.74168 2.72457C4.77909 2.62987 4.81587 2.53394 4.84891 2.43738C4.95926 2.11986 5.10889 1.8661 5.30901 1.59624C5.33644 1.55787 5.36408 1.51887 5.39193 1.47926C5.52826 1.29193 5.66687 1.17495 5.80777 1.12832V1.00454C5.94679 0.888794 6.08582 0.781099 6.23233 0.675879C6.27472 0.645551 6.31712 0.614604 6.36076 0.583038C6.97339 0.150606 7.4125 -0.0183649 7.67809 0.0761266Z" fill="#232423"/>
</g>
<defs>
<clipPath id="clip0_7_73">
<rect width="29" height="27" fill="white"/>
</clipPath>
</defs>
</svg>
