<svg width="50" height="50" viewBox="0 0 50 50" fill="none" xmlns="http://www.w3.org/2000/svg">
<path d="M21.0399 19.4381C24.169 17.4453 27.6108 17.18 31.3007 17.7955C31.2682 17.8187 31.2365 17.8428 31.204 17.8659L31.1854 17.8786L31.1678 17.8942C30.5391 18.431 30.4333 19.093 30.411 19.694V19.7184L30.4159 20.1139C30.4165 20.1766 30.4163 20.2393 30.4169 20.3024C30.0128 20.2973 29.609 20.2935 29.2059 20.2907C29.0126 20.289 28.8191 20.2868 28.6259 20.2838H28.6249C26.1728 20.2474 23.8002 20.6225 21.7479 22.0924C21.6242 22.1778 21.5004 22.2633 21.3729 22.3512L21.3641 22.3571L21.3553 22.3639C20.881 22.7233 20.5762 23.1315 20.2919 23.5504C20.2432 23.6199 20.1945 23.6898 20.1444 23.7614L20.1425 23.7643C19.8814 24.1422 19.6442 24.5261 19.4325 24.9391C19.3776 25.0327 19.3448 25.0903 19.3182 25.1315C19.3161 25.1348 19.3132 25.1375 19.3114 25.1403C19.3092 25.1411 19.3071 25.1423 19.3046 25.1432C19.2117 25.1533 19.1919 25.1557 19.1639 25.1539C19.115 25.1509 19.0469 25.1398 18.83 25.1022L18.8104 25.0993L18.7899 25.0973L18.6141 25.0856C17.998 25.0627 17.4879 25.2212 17.0214 25.4772C17.1171 23.6901 17.9537 22.2817 19.3837 20.8209L19.4032 20.7995C19.4967 20.6923 19.5903 20.5854 19.6864 20.4752C19.9938 20.1423 20.3555 19.8834 20.7938 19.5983H20.7948C20.9167 19.5187 20.9174 19.5164 21.0389 19.4371L21.0399 19.4381Z" fill="black" stroke="black"/>
<path d="M26.8574 22.6162C28.7579 22.3396 30.6777 22.5274 32.2109 23.4775C32.4153 23.6258 32.616 23.7779 32.8125 23.9336L32.8135 23.9346C32.9062 24.0077 32.9994 24.0802 33.0947 24.1553V24.1562C34.4863 25.3333 35.4238 26.8765 36.0967 28.5234L36.0977 28.5264C36.7188 30.021 37.6348 31.321 38.5947 32.583C38.6511 32.6585 38.7071 32.7344 38.7646 32.8115C38.3473 32.7739 37.9327 32.7317 37.5215 32.6738H37.5176C37.4383 32.6633 37.3591 32.6524 37.2783 32.6416C37.1968 32.6055 37.165 32.5744 37.1406 32.5449C37.1197 32.5196 37.096 32.4845 37.0615 32.4268C37.0444 32.398 37.0262 32.3673 37.0049 32.3301C36.9891 32.3026 36.971 32.2725 36.9521 32.2402C36.8603 32.0311 36.7747 31.8188 36.6934 31.6045L36.6924 31.6035L36.5439 31.2139C36.4942 31.0815 36.4448 30.9489 36.3936 30.8125L36.3926 30.8096L36.2373 30.4053H36.2383C35.8312 29.3327 35.8404 29.3567 35.7363 28.9512L35.6533 28.6289L35.3252 28.5811L34.3203 28.4404C34.0458 28.4079 33.817 28.3901 33.5889 28.3896C33.1315 28.3887 32.6833 28.4563 31.8857 28.5742L31.7822 28.5898L31.6934 28.6455C31.5873 28.712 31.476 28.7783 31.3711 28.8818C31.2773 28.9745 31.1923 29.0935 31.0908 29.2324L31.0273 29.3203L31.0049 29.4258C30.9779 29.5566 30.9473 29.6933 30.9473 29.8271C30.9473 29.9707 30.9821 30.1007 31.0088 30.21L31.0586 30.4141L31.2393 30.5215C32.3472 31.1799 33.59 31.3657 34.7656 31.5156C34.7831 31.5215 34.7972 31.5253 34.8086 31.5293C34.8125 31.5349 34.8159 31.5414 34.8203 31.5479C34.903 31.736 34.9422 31.8971 34.9736 32.1309V32.1328C34.9872 32.2304 35.0007 32.3283 35.0146 32.4287V32.4297C35.0286 32.5366 35.0423 32.6438 35.0566 32.7539L35.0576 32.7578C35.0808 32.9259 35.0809 32.9262 35.1045 33.0977C35.1537 33.4559 35.202 33.8144 35.25 34.1738V34.1748L35.4414 35.5811C35.4648 35.7522 35.4644 35.7526 35.4883 35.9277V35.9287C35.6036 36.7605 35.7393 37.5884 35.8965 38.415V38.416C35.9812 38.8718 36.0221 39.3148 36.0205 39.7656C35.8528 39.7083 35.6862 39.6488 35.5176 39.584L35.5156 39.583L35.2344 39.4766H35.2354C33.4988 38.809 32.6548 38.4848 32.0566 38.208C31.4753 37.9389 31.1316 37.7178 30.3887 37.2383L30.3857 37.2363L29.9922 36.9854H29.9912C29.4293 36.6177 29.1812 36.454 29.0234 36.3271C28.8903 36.2201 28.8325 36.1496 28.6553 35.9238L28.6348 35.8975L28.6113 35.875L28.3379 35.6064L28.1807 35.4531L27.9609 35.4648C27.1548 35.5084 26.3847 35.729 25.6924 35.9033C25.4423 35.965 25.1925 36.0273 24.9424 36.0889H24.9414C24.5479 36.1863 24.1542 36.2841 23.7607 36.3828C23.3811 36.4779 23.0005 36.5715 22.6191 36.665L22.6152 36.666L22.2598 36.7568C22.1515 36.7832 22.0431 36.8098 21.9316 36.8369H21.9287C21.8444 36.858 21.7601 36.8789 21.6738 36.9004C21.5681 36.9129 21.4731 36.9137 21.3721 36.9043C21.4469 35.5144 21.4847 34.7416 21.4189 33.9756C21.3497 33.1688 21.1661 32.3755 20.8232 30.8809L20.8184 30.8574L20.8105 30.834L20.7344 30.5898C20.3829 29.3501 20.4098 27.8047 20.9268 26.6885L20.9287 26.6855C20.9764 26.5809 21.0233 26.4756 21.0723 26.3682C21.4641 25.591 21.9799 24.9947 22.6846 24.3672L22.6943 24.3584C22.7572 24.2994 22.8192 24.2393 22.8838 24.1787L22.8848 24.1797C23.8316 23.3626 25.2058 22.9182 26.5713 22.6797L26.582 22.6777L26.5928 22.6748C26.68 22.6555 26.7678 22.6361 26.8574 22.6162Z" fill="black" stroke="black"/>
<path d="M20.1328 12.1533C25.0701 9.9264 31.8003 9.89454 36.6523 12.3945C36.6499 12.4016 36.6441 12.4192 36.627 12.4531C36.5977 12.5109 36.5643 12.5686 36.5039 12.6787L36.502 12.6816C36.4454 12.7863 36.3892 12.8913 36.3311 12.999C36.2683 13.1123 36.2052 13.2261 36.1406 13.3428L36.1387 13.3467L35.7559 14.0498C35.6922 14.1663 35.6281 14.2833 35.5625 14.4033L35.5615 14.4062C35.3923 14.7206 35.2292 15.0358 35.0703 15.3525C35.0257 15.441 34.9805 15.5299 34.9346 15.6211V15.6221C34.8511 15.7885 34.7681 15.9556 34.6865 16.123C34.6275 16.2391 34.5606 16.3539 34.4902 16.4727C34.4304 16.4867 34.4145 16.4877 34.4072 16.4873C34.4039 16.4871 34.3897 16.4856 34.3477 16.4727C34.3004 16.458 34.2408 16.4367 34.1396 16.3984V16.3975L34.1338 16.3955C34.0394 16.3612 33.9449 16.3274 33.8477 16.292H33.8486C33.7469 16.2547 33.6449 16.2171 33.54 16.1787H33.541L33.5312 16.1758L33.1885 16.0625C29.8652 15.0084 26.1593 15.0877 22.8271 15.999L22.1436 16.1992L21.7998 16.3037L21.7881 16.3076C18.7661 17.3014 16.704 19.5171 15.3867 22.0225L15.3799 22.0342L15.374 22.0479C14.726 23.4694 14.6503 24.7846 14.7197 26.1709L14.7568 26.7695C14.9285 29.2162 15.032 31.4395 14.1855 33.6641L14.1807 33.6758C14.1481 33.7684 14.1165 33.8618 14.083 33.957C13.6824 34.9862 12.8578 36.0719 11.9043 36.8613C12.5073 34.8331 12.6459 32.829 12.3613 30.7207H12.3623C12.3459 30.595 12.3294 30.4694 12.3125 30.3398L12.3115 30.3379L12.2129 29.6436C12.1098 28.95 11.9942 28.2598 11.873 27.5723C11.7214 26.706 11.5858 25.8792 11.5361 25.041L11.5205 24.6807C11.5179 24.5912 11.5153 24.5013 11.5127 24.4092C11.4829 23.2037 11.485 22.0878 11.7568 20.9736L11.7588 20.9678C11.7894 20.8353 11.819 20.7019 11.8506 20.5654C12.3778 18.5581 13.5916 16.9768 15.1748 15.4297L15.4971 15.1201L15.5039 15.1143C15.5765 15.043 15.6499 14.9708 15.7246 14.8975C16.7372 13.9324 17.9678 13.1923 19.2959 12.5469L19.8711 12.2754C19.9576 12.2356 20.0447 12.1953 20.1338 12.1543L20.1328 12.1533Z" fill="black" stroke="black"/>
</svg>
