<svg width="50" height="50" viewBox="0 0 50 50" fill="none" xmlns="http://www.w3.org/2000/svg">
<path fill-rule="evenodd" clip-rule="evenodd" d="M32.3284 12.1245L32.244 12.4056L32.1174 12.7671L31.7376 13.008L31.6532 13.249L31.4422 13.5703L30.978 13.9719L30.5138 14.2932V14.4137L30.2183 14.8956L30.1339 15.4177H30.3872L31.1468 15.0161L32.033 14.6145L32.8349 14.5341L33.4257 14.6948L34.1431 15.0161L34.5651 15.4177L34.9028 15.9799L35.2404 16.9036V17.6667V19.0321L35.0294 19.5141V20.1968L35.578 21.241L35.9156 22.245L36 23.2892V24.4137L35.8312 25.6586L35.578 26.7831L34.9028 28.8715L34.0587 30.6386L32.7083 32.7269L31.5688 34.1727L30.345 35.5382L29.3743 36.3414L29.1633 36.6627L28.6569 37.0643L28.5725 37.2249L28.6569 37.3454L29.1633 37.5462L29.3743 37.6265L29.4587 37.8273H29.6275L30.0495 38.3092L30.0917 38.8715V39.2731L29.8807 39.5944L29.3743 39.996L28.9101 40.2369L27.6862 40.5984L26.2514 40.8795L24.9009 41H23.8037L22.7486 40.9197L21.5248 40.7189L20.3853 40.4779L19.5835 40.1968L18.9505 39.7952L18.6972 39.4739V39.0723V38.4699L18.9505 38.0683L19.3303 37.7068L19.7945 37.4257L20.1321 37.2249L20.5541 37.1847V37.1044L20.4697 37.0643L20.2587 36.9036L19.7101 36.5823L19.2881 36.2209L19.1193 36.0201L18.7817 35.6586L17.7688 34.5341L17.0936 33.6506L16.2495 32.5261L15.6165 31.6024L14.8991 30.4378L14.5193 29.7149L14.0972 28.7108L13.844 28.0683L13.6752 27.5462L13.5064 27.0241L13.3798 26.502L13.3376 26.1406L13.211 25.6988L13 24.6948V23.0482L13.1266 22.1647L13.3376 21.3213L13.9284 19.7952L13.8862 19.3534L13.7596 17.9478V16.7028L13.8862 15.9799L14.1394 15.4177L14.4349 14.9759L15.1101 14.4538L15.6165 14.2129L16.1651 14.0924H16.8404L17.389 14.2129L17.8954 14.4137L18.4862 14.7349V14.494L18.3596 14.1727L17.8954 13.8112L17.5578 13.5301L17.2624 13.1687L17.2202 13.008L17.1358 12.7671L16.8826 12.6466L16.756 12.5261L16.6294 12.3253L16.5872 12.0442L16.7138 11.8032L17.178 11.6024L17.8532 11.4418L19.4991 11.241L21.356 11.0803L22.9174 11H25.4495L27.011 11.0803L28.8679 11.2008L29.9651 11.3213L30.7248 11.4418L31.1468 11.5221L31.5688 11.6426L31.8642 11.7229L32.244 11.9639L32.3284 12.1245ZM15.3211 18.8715L15.2367 18.2691L15.1945 17.5462V16.7831V16.2209L15.3211 15.7791L15.5321 15.4177L15.9119 15.2169H16.545L17.0514 15.3373L17.4312 15.5382L17.8532 15.8594L18.233 16.2209L18.5284 16.5823L18.6972 16.9036L18.6128 17.3052L18.4862 17.6265L18.4018 17.8273L17.9376 18.0281L17.4734 18.1888L16.967 18.3896L16.545 18.6305L16.0807 18.7912L15.9119 18.8715L15.7009 18.992H15.4477L15.3211 18.9116V18.8715ZM33.8477 18.4297L33.7633 19.1928L33.6789 19.2731L33.5523 19.1928L33.2569 18.9518L32.8349 18.751L32.3706 18.51L31.822 18.3092L30.8936 17.988L30.4294 17.8675L30.3872 17.747L30.345 17.5863L30.3028 17.3052L30.345 16.9839L30.5138 16.7028L30.8092 16.4217L31.189 16.0602L31.6954 15.739L32.0752 15.6185H32.5394L32.9193 15.739L33.3413 15.9799L33.5945 16.4618L33.7633 16.9036L33.8477 17.5462V18.4297Z" fill="black"/>
</svg>
