<svg width="80" height="40" viewBox="0 0 80 40" fill="none" xmlns="http://www.w3.org/2000/svg">
<path d="M0 10C0 4.47715 4.47715 0 10 0H70C75.5228 0 80 4.47715 80 10V30C80 35.5228 75.5228 40 70 40H10C4.47715 40 0 35.5228 0 30V10Z" fill="#9EBE3E"/>
<path d="M70 36V40H10V36H70ZM76 30V10C76 6.68629 73.3137 4 70 4H10C6.68629 4 4 6.68629 4 10V30C4 33.3137 6.68629 36 10 36V40C4.47715 40 0 35.5228 0 30V10C0 4.47715 4.47715 0 10 0H70C75.5228 0 80 4.47715 80 10V30L79.9863 30.5137C79.7189 35.7978 75.3506 40 70 40V36C73.3137 36 76 33.3137 76 30Z" fill="black"/>
<path d="M54.4247 32.9091C53.9645 32.9091 53.5327 32.8722 53.1293 32.7983C52.7315 32.7301 52.402 32.642 52.1406 32.5341L52.9588 29.8239C53.3849 29.9545 53.7685 30.0256 54.1094 30.0369C54.456 30.0483 54.7543 29.9687 55.0043 29.7983C55.2599 29.6278 55.4673 29.3381 55.6264 28.929L55.8395 28.375L51.1435 14.9091H54.9616L57.6719 24.5227H57.8082L60.544 14.9091H64.3878L59.2997 29.4148C59.0554 30.1193 58.723 30.733 58.3026 31.2557C57.8878 31.7841 57.3622 32.1903 56.7258 32.4744C56.0895 32.7642 55.3224 32.9091 54.4247 32.9091Z" fill="black"/>
<path d="M42.4631 28.2472C41.6279 28.2472 40.8835 28.1023 40.2301 27.8125C39.5767 27.5171 39.0597 27.0824 38.679 26.5085C38.304 25.929 38.1165 25.2074 38.1165 24.3438C38.1165 23.6165 38.25 23.0057 38.5171 22.5114C38.7841 22.0171 39.1477 21.6193 39.608 21.3182C40.0682 21.0171 40.5909 20.7898 41.1761 20.6364C41.7671 20.483 42.3864 20.375 43.0341 20.3125C43.7955 20.233 44.4091 20.1591 44.875 20.0909C45.3409 20.0171 45.679 19.9091 45.8892 19.7671C46.0994 19.625 46.2046 19.4148 46.2046 19.1364V19.0852C46.2046 18.5455 46.0341 18.1279 45.6932 17.8324C45.358 17.5369 44.8807 17.3892 44.2614 17.3892C43.608 17.3892 43.0881 17.5341 42.7017 17.8239C42.3153 18.108 42.0597 18.4659 41.9347 18.8977L38.5767 18.625C38.7472 17.8296 39.0824 17.1421 39.5824 16.5625C40.0824 15.9773 40.7273 15.5284 41.5171 15.2159C42.3125 14.8977 43.233 14.7386 44.2784 14.7386C45.0057 14.7386 45.7017 14.8239 46.3665 14.9943C47.0369 15.1648 47.6307 15.429 48.1477 15.7869C48.6705 16.1449 49.0824 16.6051 49.3835 17.1676C49.6847 17.7244 49.8352 18.3921 49.8352 19.1705V28H46.3921V26.1847H46.2898C46.0796 26.5938 45.7983 26.9546 45.446 27.2671C45.0938 27.5739 44.6705 27.8154 44.1761 27.9915C43.6818 28.1619 43.1108 28.2472 42.4631 28.2472ZM43.5028 25.7415C44.0369 25.7415 44.5085 25.6364 44.9176 25.4261C45.3267 25.2102 45.6477 24.9205 45.8807 24.5568C46.1136 24.1932 46.2301 23.7813 46.2301 23.321V21.9318C46.1165 22.0057 45.9602 22.0739 45.7614 22.1364C45.5682 22.1932 45.3494 22.2472 45.1051 22.2983C44.8608 22.3438 44.6165 22.3864 44.3722 22.4261C44.1278 22.4602 43.9063 22.4915 43.7074 22.5199C43.2813 22.5824 42.9091 22.6818 42.5909 22.8182C42.2727 22.9546 42.0256 23.1392 41.8494 23.3722C41.6733 23.5994 41.5852 23.8835 41.5852 24.2244C41.5852 24.7188 41.7642 25.0966 42.1222 25.358C42.4858 25.6136 42.946 25.7415 43.5028 25.7415Z" fill="black"/>
<path d="M35.8217 10.5454V28H32.191V10.5454H35.8217Z" fill="black"/>
<path d="M16.7202 28V10.5454H23.6065C24.9304 10.5454 26.0583 10.7983 26.9901 11.304C27.9219 11.804 28.6321 12.5 29.1208 13.392C29.6151 14.2784 29.8622 15.3011 29.8622 16.4602C29.8622 17.6193 29.6122 18.642 29.1122 19.5284C28.6122 20.4148 27.8878 21.1051 26.9389 21.5994C25.9958 22.0937 24.8537 22.3409 23.5128 22.3409H19.1236V19.3835H22.9162C23.6264 19.3835 24.2117 19.2613 24.6719 19.017C25.1378 18.767 25.4844 18.4233 25.7117 17.9858C25.9446 17.5426 26.0611 17.0341 26.0611 16.4602C26.0611 15.8807 25.9446 15.375 25.7117 14.9432C25.4844 14.5057 25.1378 14.1676 24.6719 13.929C24.206 13.6846 23.6151 13.5625 22.8992 13.5625H20.4105V28H16.7202Z" fill="black"/>
</svg>
