<svg width="60" height="60" viewBox="0 0 60 60" fill="none" xmlns="http://www.w3.org/2000/svg">
<circle cx="30" cy="30" r="28" fill="#C59748" stroke="black" stroke-width="4"/>
<path d="M26.33 35.6927L26.4124 35.2474C26.6477 33.9305 26.9536 32.8801 27.3302 32.0961C27.7146 31.3121 28.1774 30.6803 28.7187 30.2008C29.2599 29.7136 29.8875 29.2721 30.6013 28.8763C31.1269 28.5718 31.6133 28.2559 32.0604 27.9286C32.5076 27.6013 32.8762 27.2398 33.1665 26.844C33.4646 26.4405 33.6529 25.9914 33.7313 25.4967C33.8176 24.9715 33.7666 24.5109 33.5783 24.1151C33.3901 23.7193 33.0998 23.4148 32.7076 23.2017C32.3154 22.9886 31.8525 22.882 31.3191 22.882C30.8092 22.882 30.3072 22.9924 29.813 23.2131C29.3188 23.4263 28.8873 23.746 28.5186 24.1722C28.1578 24.5909 27.9185 25.1123 27.8008 25.7364H23C23.2902 24.2141 23.8747 22.9581 24.7532 21.9686C25.6397 20.9715 26.7105 20.2293 27.9656 19.7421C29.2285 19.2474 30.5778 19 32.0134 19C33.5587 19 34.8884 19.2512 36.0023 19.7536C37.1162 20.2483 37.932 20.9676 38.4498 21.9115C38.9754 22.8554 39.1244 23.9933 38.8969 25.3254C38.7479 26.2236 38.4655 27.019 38.0497 27.7117C37.6418 28.3968 37.1201 29.0057 36.4847 29.5385C35.8493 30.0637 35.1276 30.5319 34.3196 30.9429C33.645 31.3007 33.0763 31.6736 32.6135 32.0618C32.1506 32.4424 31.778 32.8877 31.4956 33.3977C31.2132 33.9001 31.0053 34.5167 30.872 35.2474L30.7896 35.6927H26.33ZM27.6361 43C26.8438 43 26.1927 42.7336 25.6828 42.2008C25.1808 41.6679 24.9533 41.0209 25.0004 40.2598C25.0553 39.5062 25.3808 38.8706 25.977 38.353C26.581 37.8278 27.2753 37.5652 28.0597 37.5652C28.8128 37.5652 29.4482 37.8278 29.9659 38.353C30.4837 38.8782 30.7112 39.5138 30.6484 40.2598C30.6092 40.7621 30.4405 41.2226 30.1424 41.6413C29.8522 42.0523 29.4835 42.3834 29.0364 42.6346C28.5892 42.8782 28.1225 43 27.6361 43Z" fill="black"/>
</svg>
