<svg width="160" height="60" viewBox="0 0 160 60" fill="none" xmlns="http://www.w3.org/2000/svg">
<rect x="2" y="2" width="156" height="56" rx="13" fill="#9EBE3E" stroke="black" stroke-width="4"/>
<path d="M33.1619 25.01C33.0588 23.9806 32.6165 23.1808 31.835 22.6108C31.0535 22.0407 29.9929 21.7557 28.6532 21.7557C27.7429 21.7557 26.9743 21.8833 26.3474 22.1386C25.7205 22.3853 25.2396 22.7299 24.9046 23.1723C24.5783 23.6147 24.4151 24.1167 24.4151 24.6782C24.398 25.1462 24.4967 25.5545 24.7114 25.9034C24.9347 26.2522 25.2396 26.5542 25.626 26.8095C26.0125 27.0562 26.459 27.2732 26.9657 27.4603C27.4724 27.639 28.0134 27.7922 28.5888 27.9198L30.9591 28.4813C32.1098 28.7366 33.1661 29.0769 34.128 29.5023C35.0898 29.9277 35.9228 30.4509 36.6271 31.072C37.3313 31.6931 37.8766 32.4248 38.263 33.2671C38.6581 34.1094 38.8599 35.0751 38.8685 36.1641C38.8599 37.7636 38.4477 39.1504 37.6318 40.3245C36.8246 41.4901 35.6566 42.3962 34.128 43.0428C32.6079 43.6809 30.7744 44 28.6275 44C26.4977 44 24.6427 43.6767 23.0625 43.0301C21.491 42.3835 20.2629 41.4263 19.3784 40.1586C18.5024 38.8824 18.0429 37.3042 18 35.4239H23.3975C23.4576 36.3002 23.7109 37.0319 24.1575 37.619C24.6126 38.1975 25.2181 38.6357 25.9738 38.9335C26.7381 39.2227 27.6012 39.3674 28.5631 39.3674C29.5077 39.3674 30.3279 39.2312 31.0235 38.959C31.7277 38.6867 32.273 38.3081 32.6595 37.8232C33.0459 37.3382 33.2391 36.7809 33.2391 36.1513C33.2391 35.5643 33.0631 35.0708 32.711 34.6709C32.3675 34.271 31.8608 33.9307 31.1909 33.65C30.5297 33.3692 29.7181 33.1139 28.7563 32.8842L25.8836 32.1696C23.6594 31.6335 21.9032 30.7955 20.615 29.6554C19.3268 28.5153 18.687 26.9796 18.6956 25.0483C18.687 23.4658 19.1121 22.0833 19.9709 20.9006C20.8383 19.718 22.0277 18.7949 23.5392 18.1313C25.0506 17.4676 26.7682 17.1358 28.6919 17.1358C30.6499 17.1358 32.3589 17.4676 33.8188 18.1313C35.2873 18.7949 36.4295 19.718 37.2454 20.9006C38.0612 22.0833 38.482 23.4531 38.5078 25.01H33.1619Z" fill="black"/>
<path d="M55.2058 35.2835V24.0273H60.6934V43.6299H55.4248V40.0693H55.2187C54.7721 41.2179 54.0293 42.141 52.9901 42.8387C51.9596 43.5363 50.7015 43.8851 49.2158 43.8851C47.8932 43.8851 46.7296 43.5874 45.7248 42.9918C44.72 42.3962 43.9342 41.5497 43.3674 40.4521C42.8092 39.3546 42.5258 38.0401 42.5172 36.5087V24.0273H48.0049V35.5387C48.0135 36.6958 48.3269 37.6105 48.9453 38.2826C49.5636 38.9547 50.3923 39.2908 51.4314 39.2908C52.0927 39.2908 52.711 39.1419 53.2864 38.8441C53.8618 38.5378 54.3255 38.0869 54.6776 37.4913C55.0383 36.8958 55.2144 36.1598 55.2058 35.2835Z" fill="black"/>
<path d="M65.186 43.6299V17.4932H70.6736V27.32H70.8411C71.0815 26.7925 71.4293 26.2565 71.8845 25.7119C72.3482 25.1589 72.9494 24.6995 73.6879 24.3336C74.4351 23.9593 75.3626 23.7721 76.4704 23.7721C77.9132 23.7721 79.2443 24.1465 80.4637 24.8952C81.6832 25.6354 82.6579 26.7542 83.3879 28.2516C84.1179 29.7405 84.4829 31.608 84.4829 33.8541C84.4829 36.0407 84.1265 37.887 83.4137 39.3929C82.7095 40.8903 81.7476 42.0261 80.5282 42.8004C79.3173 43.5661 77.9604 43.949 76.4575 43.949C75.3926 43.949 74.4866 43.7745 73.7395 43.4257C73.0009 43.0769 72.3955 42.6387 71.9231 42.1112C71.4508 41.5752 71.0901 41.0349 70.8411 40.4904H70.5963V43.6299H65.186ZM70.5577 33.8286C70.5577 34.9942 70.7208 36.0109 71.0472 36.8788C71.3735 37.7466 71.8458 38.423 72.4642 38.9079C73.0825 39.3844 73.8339 39.6226 74.7185 39.6226C75.6116 39.6226 76.3673 39.3801 76.9857 38.8952C77.604 38.4017 78.072 37.7211 78.3898 36.8532C78.7161 35.9769 78.8793 34.9687 78.8793 33.8286C78.8793 32.6971 78.7204 31.7016 78.4027 30.8423C78.0849 29.983 77.6169 29.3108 76.9985 28.8259C76.3802 28.3409 75.6202 28.0985 74.7185 28.0985C73.8253 28.0985 73.0696 28.3324 72.4513 28.8004C71.8415 29.2683 71.3735 29.9319 71.0472 30.7912C70.7208 31.6506 70.5577 32.663 70.5577 33.8286Z" fill="black"/>
<path d="M88.1445 43.6299V24.0273H93.3745V27.4859H93.6064C94.0186 26.3373 94.7056 25.4312 95.6675 24.7675C96.6293 24.1039 97.7801 23.7721 99.1198 23.7721C100.477 23.7721 101.632 24.1082 102.585 24.7803C103.538 25.4439 104.174 26.3458 104.491 27.4859H104.698C105.101 26.3628 105.831 25.4652 106.887 24.7931C107.952 24.1124 109.211 23.7721 110.662 23.7721C112.508 23.7721 114.007 24.3549 115.158 25.5205C116.317 26.6776 116.897 28.3197 116.897 30.4467V43.6299H111.422V31.5187C111.422 30.4297 111.13 29.6129 110.546 29.0684C109.962 28.5239 109.232 28.2516 108.356 28.2516C107.36 28.2516 106.583 28.5664 106.024 29.196C105.466 29.8171 105.187 30.6381 105.187 31.6591V43.6299H99.8669V31.4038C99.8669 30.4424 99.5878 29.6767 99.0296 29.1067C98.48 28.5366 97.7543 28.2516 96.8526 28.2516C96.2429 28.2516 95.6932 28.4047 95.2037 28.711C94.7228 29.0088 94.3406 29.43 94.0572 29.9745C93.7738 30.5105 93.6321 31.1401 93.6321 31.8633V43.6299H88.1445Z" fill="black"/>
<path d="M121.231 43.6299V24.0273H126.719V43.6299H121.231ZM123.988 21.5005C123.172 21.5005 122.472 21.2325 121.888 20.6964C121.313 20.1519 121.025 19.5011 121.025 18.7438C121.025 17.9951 121.313 17.3528 121.888 16.8168C122.472 16.2723 123.172 16 123.988 16C124.804 16 125.5 16.2723 126.075 16.8168C126.659 17.3528 126.951 17.9951 126.951 18.7438C126.951 19.5011 126.659 20.1519 126.075 20.6964C125.5 21.2325 124.804 21.5005 123.988 21.5005Z" fill="black"/>
<path d="M141.639 24.0273V28.1112H129.724V24.0273H141.639ZM132.429 19.3309H137.916V37.6062C137.916 38.1082 137.994 38.4995 138.148 38.7803C138.303 39.0526 138.518 39.244 138.792 39.3546C139.076 39.4652 139.402 39.5205 139.771 39.5205C140.029 39.5205 140.287 39.4992 140.544 39.4567C140.802 39.4057 141 39.3674 141.137 39.3418L142 43.3874C141.725 43.4725 141.339 43.5703 140.841 43.6809C140.343 43.8001 139.737 43.8724 139.024 43.8979C137.702 43.949 136.542 43.7745 135.546 43.3747C134.559 42.9748 133.79 42.3537 133.24 41.5114C132.691 40.6691 132.42 39.6056 132.429 38.3209V19.3309Z" fill="black"/>
</svg>
