<svg width="288" height="51" viewBox="0 0 288 51" fill="none" xmlns="http://www.w3.org/2000/svg">
<path d="M267.801 46.3018C264.555 46.3018 261.76 45.6612 259.417 44.3799C257.089 43.0852 255.294 41.2567 254.034 38.8943C252.773 36.5186 252.143 33.7091 252.143 30.4658C252.143 27.3026 252.773 24.5264 254.034 22.1373C255.294 19.7482 257.068 17.8864 259.356 16.5517C261.657 15.217 264.356 14.5496 267.452 14.5496C269.534 14.5496 271.473 14.8766 273.267 15.5306C275.076 16.1713 276.651 17.1389 277.994 18.4336C279.35 19.7282 280.405 21.3565 281.158 23.3185C281.912 25.2672 282.288 27.5495 282.288 30.1655V32.5078H255.636V27.2225H274.048C274.048 25.9946 273.774 24.9068 273.226 23.9592C272.678 23.0116 271.918 22.2708 270.945 21.7369C269.986 21.1897 268.87 20.9161 267.596 20.9161C266.267 20.9161 265.089 21.2164 264.061 21.817C263.048 22.4043 262.253 23.1984 261.678 24.1994C261.102 25.1871 260.808 26.2882 260.794 27.5028V32.5279C260.794 34.0494 261.082 35.3641 261.657 36.4719C262.246 37.5796 263.075 38.4338 264.144 39.0345C265.212 39.6351 266.479 39.9354 267.945 39.9354C268.918 39.9354 269.808 39.8019 270.617 39.535C271.425 39.268 272.117 38.8676 272.692 38.3337C273.267 37.7999 273.706 37.1459 274.007 36.3718L282.103 36.8923C281.692 38.7875 280.85 40.4425 279.576 41.8573C278.316 43.2587 276.685 44.3532 274.685 45.1406C272.699 45.9148 270.404 46.3018 267.801 46.3018Z" fill="#CDB895"/>
<path d="M246.404 4.6994V45.7009H237.651V4.6994H246.404Z" fill="#CDB895"/>
<path d="M212.493 46.2014C210.095 46.2014 207.924 45.6008 205.979 44.3996C204.047 43.1851 202.513 41.4033 201.376 39.0542C200.252 36.6918 199.691 33.7955 199.691 30.3654C199.691 26.8418 200.273 23.9122 201.437 21.5765C202.602 19.2275 204.15 17.4723 206.081 16.3112C208.027 15.1366 210.157 14.5494 212.472 14.5494C214.239 14.5494 215.712 14.843 216.89 15.4303C218.082 16.0042 219.041 16.7249 219.767 17.5925C220.507 18.4467 221.069 19.2875 221.452 20.115H221.719V4.6994H230.453V45.7009H221.822V40.7759H221.452C221.041 41.6301 220.459 42.4777 219.705 43.3185C218.966 44.146 218 44.8334 216.808 45.3806C215.63 45.9278 214.191 46.2014 212.493 46.2014ZM215.267 39.4146C216.678 39.4146 217.87 39.0409 218.842 38.2934C219.829 37.5327 220.582 36.4716 221.103 35.1102C221.637 33.7488 221.904 32.1539 221.904 30.3254C221.904 28.4968 221.644 26.9086 221.123 25.5605C220.603 24.2125 219.849 23.1714 218.863 22.4374C217.877 21.7033 216.678 21.3363 215.267 21.3363C213.828 21.3363 212.616 21.7166 211.63 22.4774C210.643 23.2382 209.897 24.2926 209.39 25.6406C208.883 26.9886 208.63 28.5502 208.63 30.3254C208.63 32.1138 208.883 33.6954 209.39 35.0702C209.91 36.4316 210.657 37.4993 211.63 38.2734C212.616 39.0342 213.828 39.4146 215.267 39.4146Z" fill="#CDB895"/>
<path d="M176.295 46.2818C174.281 46.2818 172.487 45.9415 170.911 45.2608C169.336 44.5667 168.089 43.5457 167.171 42.1977C166.267 40.8363 165.815 39.1412 165.815 37.1125C165.815 35.4041 166.137 33.9693 166.781 32.8082C167.425 31.647 168.302 30.7127 169.411 30.0053C170.521 29.2979 171.781 28.7641 173.192 28.4037C174.617 28.0433 176.11 27.7897 177.672 27.6429C179.508 27.4561 180.987 27.2826 182.11 27.1224C183.234 26.9489 184.049 26.6953 184.556 26.3616C185.063 26.0279 185.316 25.5341 185.316 24.8801V24.76C185.316 23.492 184.905 22.5111 184.083 21.817C183.275 21.123 182.124 20.776 180.631 20.776C179.056 20.776 177.802 21.1163 176.87 21.797C175.939 22.4643 175.322 23.3052 175.021 24.3196L166.925 23.6789C167.336 21.8103 168.144 20.1954 169.35 18.834C170.555 17.4593 172.11 16.4049 174.014 15.6708C175.932 14.9234 178.151 14.5497 180.672 14.5497C182.426 14.5497 184.104 14.7499 185.706 15.1503C187.323 15.5507 188.755 16.1713 190.001 17.0121C191.262 17.853 192.255 18.9341 192.981 20.2554C193.707 21.5634 194.07 23.1317 194.07 24.9602V45.7012H185.768V41.4369H185.522C185.015 42.3979 184.337 43.2454 183.487 43.9795C182.638 44.7002 181.617 45.2674 180.425 45.6812C179.234 46.0816 177.857 46.2818 176.295 46.2818ZM178.802 40.3958C180.09 40.3958 181.227 40.1489 182.213 39.6551C183.2 39.1479 183.974 38.4672 184.535 37.613C185.097 36.7588 185.378 35.7912 185.378 34.7101V31.4468C185.104 31.6203 184.727 31.7804 184.248 31.9273C183.782 32.0607 183.254 32.1875 182.665 32.3076C182.076 32.4144 181.487 32.5145 180.898 32.6079C180.309 32.688 179.775 32.7614 179.295 32.8282C178.268 32.975 177.37 33.2086 176.603 33.5289C175.836 33.8492 175.24 34.283 174.816 34.8302C174.391 35.3641 174.179 36.0314 174.179 36.8322C174.179 37.9934 174.61 38.881 175.473 39.4949C176.35 40.0955 177.46 40.3958 178.802 40.3958Z" fill="#CDB895"/>
<path d="M144.521 45.7012V14.95H153.008V20.3155H153.336C153.912 18.4069 154.878 16.9654 156.234 15.9911C157.59 15.0034 159.152 14.5096 160.919 14.5096C161.357 14.5096 161.83 14.5363 162.337 14.5897C162.844 14.6431 163.289 14.7165 163.672 14.8099V22.3776C163.261 22.2574 162.693 22.1507 161.967 22.0572C161.241 21.9638 160.576 21.9171 159.974 21.9171C158.686 21.9171 157.535 22.1907 156.521 22.7379C155.521 23.2718 154.727 24.0192 154.138 24.9802C153.562 25.9412 153.275 27.049 153.275 28.3036V45.7012H144.521Z" fill="#CDB895"/>
<path d="M118.772 36.852L118.793 26.6216H120.067L130.177 14.9498H140.225L126.642 30.4054H124.567L118.772 36.852ZM110.84 45.7009V4.69939H119.594V45.7009H110.84ZM130.567 45.7009L121.279 32.3074L127.115 26.2813L140.821 45.7009H130.567Z" fill="#CDB895"/>
<path d="M83.5967 27.9232V45.7012H74.8429V14.95H83.1857V20.3755H83.5556C84.2543 18.5871 85.4256 17.1723 87.0695 16.1312C88.7134 15.0768 90.7067 14.5496 93.0492 14.5496C95.2411 14.5496 97.1522 15.0168 98.7824 15.951C100.413 16.8853 101.68 18.22 102.584 19.9551C103.488 21.6768 103.94 23.7323 103.94 26.1214V45.7012H95.1863V27.6429C95.2 25.761 94.7068 24.2928 93.7068 23.2384C92.7068 22.1707 91.33 21.6368 89.5765 21.6368C88.3983 21.6368 87.3572 21.8837 86.453 22.3776C85.5626 22.8714 84.8639 23.5921 84.357 24.5397C83.8639 25.474 83.6104 26.6018 83.5967 27.9232Z" fill="#CDB895"/>
<path d="M50.2758 46.2817C48.262 46.2817 46.4674 45.9414 44.892 45.2607C43.3165 44.5666 42.0699 43.5456 41.1521 42.1976C40.2479 40.8362 39.7958 39.1411 39.7958 37.1124C39.7958 35.404 40.1178 33.9692 40.7616 32.8081C41.4055 31.6469 42.2823 30.7126 43.3919 30.0052C44.5015 29.2978 45.7619 28.764 47.1729 28.4036C48.5976 28.0432 50.0908 27.7896 51.6526 27.6428C53.4883 27.456 54.9678 27.2825 56.0911 27.1223C57.2145 26.9488 58.0296 26.6952 58.5365 26.3615C59.0433 26.0279 59.2968 25.534 59.2968 24.88V24.7599C59.2968 23.492 58.8858 22.511 58.0638 21.8169C57.2556 21.1229 56.1048 20.7759 54.6116 20.7759C53.0362 20.7759 51.7827 21.1162 50.8512 21.7969C49.9196 22.4643 49.3032 23.3051 49.0018 24.3195L40.9055 23.6788C41.3165 21.8103 42.1247 20.1953 43.3303 18.8339C44.5358 17.4592 46.0907 16.4048 47.9949 15.6707C49.9128 14.9233 52.1321 14.5496 54.6527 14.5496C56.4062 14.5496 58.0844 14.7498 59.6872 15.1502C61.3037 15.5506 62.7353 16.1712 63.9819 17.0121C65.2423 17.8529 66.2355 18.934 66.9615 20.2553C67.6876 21.5633 68.0506 23.1316 68.0506 24.9601V45.7011H59.7489V41.4368H59.5023C58.9954 42.3978 58.3173 43.2453 57.4679 43.9794C56.6186 44.7001 55.598 45.2674 54.4061 45.6811C53.2143 46.0815 51.8375 46.2817 50.2758 46.2817ZM52.7828 40.3958C54.0705 40.3958 55.2075 40.1488 56.1939 39.655C57.1802 39.1478 57.9543 38.4671 58.5159 37.6129C59.0776 36.7587 59.3584 35.7911 59.3584 34.71V31.4467C59.0844 31.6202 58.7077 31.7804 58.2282 31.9272C57.7625 32.0606 57.235 32.1874 56.646 32.3076C56.0569 32.4143 55.4678 32.5144 54.8788 32.6079C54.2897 32.6879 53.7554 32.7613 53.2759 32.8281C52.2485 32.9749 51.3512 33.2085 50.584 33.5288C49.8169 33.8491 49.221 34.2829 48.7963 34.8301C48.3716 35.364 48.1593 36.0313 48.1593 36.8321C48.1593 37.9933 48.5908 38.8809 49.4538 39.4948C50.3306 40.0954 51.4402 40.3958 52.7828 40.3958Z" fill="#CDB895"/>
<path d="M4.82085 45.7008V4.6993H21.4244C24.6163 4.6993 27.3356 5.29323 29.5823 6.4811C31.829 7.65563 33.5414 9.29062 34.7195 11.3861C35.9114 13.4682 36.5073 15.8706 36.5073 18.5934C36.5073 21.3161 35.9045 23.7186 34.699 25.8007C33.4935 27.8828 31.7468 29.5044 29.459 30.6656C27.1849 31.8268 24.4314 32.4074 21.1984 32.4074H10.6157V25.4603H19.7599C21.4723 25.4603 22.8834 25.1734 23.993 24.5995C25.1164 24.0122 25.952 23.2047 26.5 22.177C27.0616 21.136 27.3425 19.9414 27.3425 18.5934C27.3425 17.232 27.0616 16.0441 26.5 15.0298C25.952 14.0021 25.1164 13.2079 23.993 12.6474C22.8697 12.0734 21.4449 11.7865 19.7188 11.7865H13.7185V45.7008H4.82085Z" fill="#CDB895"/>
<path d="M267.451 9.85061C270.06 9.85061 272.577 10.2633 274.957 11.1307H274.953C277.379 11.996 279.533 13.3138 281.367 15.0763C283.287 16.9097 284.703 19.144 285.671 21.6601L286.019 22.6465C286.775 24.9751 287.112 27.5034 287.112 30.1662V32.5015L287.969 32.5611L287.112 36.516V37.2042H286.961L286.82 37.8648C286.243 40.5229 285.038 42.9153 283.203 44.9533C281.385 46.9745 279.101 48.4681 276.493 49.4954L276.474 49.5045C273.81 50.5423 270.886 51.0002 267.8 51.0002C263.899 51 260.257 50.2263 257.058 48.4768L257.03 48.4585C253.88 46.7073 251.433 44.2098 249.754 41.0626L249.749 41.0535C248.068 37.8835 247.32 34.3004 247.32 30.4644C247.32 26.6871 248.077 23.1516 249.745 19.99C251.402 16.8487 253.792 14.322 256.879 12.5208L256.888 12.5162C260.046 10.6853 263.625 9.85073 267.451 9.85061ZM267.451 14.5487C264.355 14.5488 261.657 15.2191 259.356 16.5536C257.069 17.8882 255.295 19.7486 254.035 22.1372L253.592 23.0502C252.627 25.2254 252.142 27.6965 252.142 30.4644C252.142 33.7073 252.775 36.517 254.035 38.8925C255.295 41.2549 257.088 43.0851 259.417 44.3798C261.467 45.5007 263.862 46.1297 266.603 46.27L267.8 46.3021C270.077 46.3021 272.12 46.0048 273.926 45.4121L274.684 45.1414C276.684 44.3539 278.317 43.2578 279.577 41.8564C280.85 40.4419 281.69 38.7868 282.101 36.8922L274.006 36.3737C273.705 37.1466 273.267 37.7995 272.692 38.3328L272.24 38.709C271.765 39.0597 271.222 39.3345 270.616 39.5348C269.808 39.8016 268.918 39.934 267.945 39.934L266.881 39.8789C266.199 39.8039 265.567 39.6541 264.983 39.4293L264.145 39.0348C263.077 38.4342 262.248 37.5779 261.659 36.4701C261.084 35.3627 260.792 34.0497 260.792 32.529V32.5061H282.29V30.1662C282.29 27.877 282 25.8424 281.423 24.0642L281.159 23.3163C280.5 21.6006 279.609 20.1401 278.489 18.9348L277.995 18.4347C276.652 17.1401 275.075 16.1712 273.267 15.5305C271.472 14.8766 269.533 14.5487 267.451 14.5487ZM268.52 20.9673C269.417 21.0698 270.226 21.3274 270.945 21.7381L271.633 22.1739C272.283 22.652 272.813 23.2475 273.224 23.9587C273.772 24.9058 274.048 25.9935 274.049 27.2207H260.811C260.864 26.1173 261.147 25.1078 261.678 24.1972C262.253 23.197 263.047 22.403 264.06 21.8161C265.088 21.2155 266.268 20.9168 267.597 20.9168L268.52 20.9673Z" fill="black"/>
<path d="M246.406 4.69819H237.651V45.7018H246.406V4.69819ZM251.228 50.4H232.829V0H251.228V50.4Z" fill="black"/>
<path d="M230.451 4.69819H221.72V20.1141H221.452C221.068 19.287 220.505 18.4444 219.766 17.5907C219.04 16.724 218.079 16.0032 216.888 15.4297C215.711 14.8431 214.237 14.5488 212.471 14.5488C210.156 14.549 208.026 15.1363 206.081 16.3106C204.149 17.4718 202.602 19.2287 201.437 21.5777L201.028 22.4816C200.137 24.6546 199.691 27.282 199.69 30.3639C199.69 33.7937 200.253 36.6914 201.376 39.0537C202.513 41.402 204.046 43.1842 205.977 44.3988C207.679 45.4499 209.556 46.043 211.605 46.1744L212.495 46.2019C214.193 46.2017 215.631 45.9277 216.808 45.3806C217.999 44.8337 218.965 44.1474 219.705 43.3206C220.457 42.4804 221.041 41.6323 221.452 40.7788H221.824V45.7018H230.451V4.69819ZM217.081 30.3272C217.081 28.9187 216.88 27.9145 216.611 27.2165C216.347 26.5339 216.078 26.2755 215.937 26.1704C215.905 26.1461 215.772 26.0329 215.268 26.0327C214.755 26.0327 214.639 26.1492 214.623 26.1612C214.446 26.2976 214.171 26.5822 213.917 27.2577C213.645 27.9819 213.451 28.9783 213.451 30.3272C213.451 31.6646 213.639 32.6776 213.912 33.4379C214.168 34.105 214.444 34.4263 214.637 34.5941C214.675 34.6234 214.816 34.718 215.268 34.718V39.4161L214.736 39.3978C213.528 39.3143 212.491 38.939 211.628 38.2737C210.899 37.693 210.3 36.9456 209.825 36.0347L209.391 35.0712C209.011 34.0406 208.771 32.8934 208.676 31.6302L208.628 30.3272C208.628 28.9963 208.772 27.7842 209.057 26.6934L209.391 25.6427C209.898 24.295 210.642 23.2377 211.628 22.477C212.615 21.7162 213.83 21.3345 215.268 21.3345L215.786 21.3529C216.974 21.4331 217.999 21.7943 218.862 22.4357C219.848 23.1695 220.601 24.2127 221.122 25.5602C221.643 26.9082 221.904 28.4986 221.904 30.3272L221.857 31.6531C221.757 32.9372 221.504 34.0913 221.103 35.1125C220.583 36.4728 219.828 37.5316 218.843 38.2921C217.87 39.0393 216.679 39.4159 215.268 39.4161V34.718C215.753 34.7178 215.852 34.6074 215.857 34.6033C216.035 34.4638 216.316 34.1668 216.582 33.47L216.596 33.4333H216.601C216.879 32.7249 217.081 31.7216 217.081 30.3272ZM235.273 50.4H217.001V50.3082C215.547 50.7212 214.027 50.9 212.495 50.9001C209.223 50.9001 206.147 50.0656 203.396 48.3675L203.364 48.3491C200.561 46.5866 198.474 44.0727 197.015 41.0587L197.001 41.0311C195.506 37.8862 194.868 34.2694 194.868 30.3639C194.868 26.3706 195.524 22.6832 197.1 19.5223C198.405 16.8945 200.187 14.6524 202.516 12.9888L203.547 12.3144C206.263 10.6761 209.272 9.85082 212.471 9.85059C213.97 9.85059 215.468 10.0159 216.898 10.4149V0H235.273V50.4Z" fill="black"/>
<path d="M194.072 24.9588C194.071 23.3591 193.794 21.9575 193.238 20.7562L192.979 20.2562C192.435 19.2653 191.743 18.4075 190.898 17.6869L190.003 17.0124C189.068 16.3821 188.028 15.8766 186.885 15.4938L185.708 15.1497C184.506 14.8495 183.26 14.6605 181.974 14.5854L180.674 14.5487C178.154 14.5487 175.933 14.9254 174.015 15.6728L173.318 15.9618C171.728 16.6743 170.404 17.6306 169.349 18.8339C168.143 20.1952 167.334 21.8104 166.923 23.6788L175.023 24.3211C175.249 23.5608 175.649 22.8953 176.229 22.3299L176.869 21.7977C177.801 21.117 179.056 20.7746 180.632 20.7746L181.687 20.8388C182.678 20.9689 183.477 21.2956 184.083 21.8161L184.371 22.0913C185 22.7614 185.317 23.652 185.317 24.7615V24.8808L185.27 25.3396C185.175 25.7706 184.935 26.1123 184.554 26.3628L184.116 26.5967C183.621 26.8167 182.952 26.9943 182.11 27.1244L180.156 27.3721C179.417 27.4588 178.587 27.5495 177.67 27.6428C176.109 27.7896 174.615 28.0442 173.191 28.4044C171.781 28.7648 170.519 29.2984 169.41 30.0056L168.623 30.5791C167.878 31.1947 167.265 31.938 166.782 32.8089L166.556 33.2585C166.064 34.3341 165.817 35.6181 165.817 37.1124L165.836 37.8556C165.934 39.5584 166.382 41.0043 167.173 42.1959C168.091 43.5439 169.337 44.5666 170.912 45.2606C172.093 45.771 173.398 46.0919 174.825 46.2195L176.295 46.2838C177.466 46.2838 178.534 46.1695 179.497 45.9443L180.424 45.6827C181.616 45.2693 182.636 44.7007 183.485 43.9806C184.334 43.2471 185.013 42.3989 185.52 41.4389H185.769V45.7011H194.072V24.9588ZM185.378 34.7083C185.378 35.7892 185.097 36.7584 184.536 37.6125C183.974 38.4664 183.2 39.147 182.214 39.6541C181.228 40.148 180.088 40.3974 178.8 40.3974L177.839 40.3377C177.225 40.2626 176.669 40.1139 176.172 39.8881L175.475 39.4936C174.612 38.8797 174.18 37.9935 174.18 36.8325C174.18 36.2313 174.299 35.7051 174.538 35.2543L174.816 34.8322C175.134 34.422 175.548 34.0734 176.059 33.7907L176.605 33.5292C177.372 33.2093 178.268 32.9739 179.294 32.8272C179.774 32.7605 180.311 32.6871 180.9 32.607C181.488 32.5137 182.078 32.4154 182.666 32.3088C183.255 32.1887 183.783 32.0614 184.248 31.928C184.728 31.7812 185.105 31.6197 185.378 31.4462V34.7083ZM198.894 50.3992H181.027C179.51 50.7973 177.92 50.9819 176.295 50.9819C173.72 50.9818 171.243 50.5423 168.958 49.555L168.925 49.5412C166.559 48.499 164.592 46.9082 163.151 44.7927L163.123 44.7514C161.601 42.4592 160.995 39.8197 160.995 37.1124C160.995 34.8473 161.419 32.5942 162.539 30.5745C163.022 29.704 163.596 28.9032 164.258 28.1796L161.061 27.9273L162.21 22.6924C162.252 22.498 162.301 22.3058 162.351 22.1143C162.896 22.1945 163.339 22.2777 163.674 22.3758V18.6916C164.074 17.9384 164.533 17.2151 165.063 16.5307L165.699 15.7645C167.243 14.0088 169.14 12.663 171.298 11.695L172.24 11.3004C174.833 10.2928 177.678 9.85061 180.674 9.85061C182.807 9.85077 184.888 10.0948 186.904 10.5984H186.9C189.015 11.1231 190.986 11.9604 192.748 13.1494H192.744C194.633 14.4138 196.138 16.055 197.222 18.0218L197.636 18.8339C198.522 20.7505 198.894 22.8323 198.894 24.9588V50.3992Z" fill="black"/>
<path d="M153.276 28.3035C153.276 27.0494 153.563 25.9424 154.137 24.9818C154.726 24.0211 155.521 23.2721 156.52 22.7382C157.534 22.1912 158.685 21.9172 159.972 21.917C160.575 21.917 161.243 21.9658 161.969 22.0592C162.694 22.1526 163.263 22.2558 163.673 22.3758V14.8102C163.482 14.7636 163.274 14.723 163.052 14.6863L162.336 14.59C161.829 14.5366 161.357 14.5074 160.919 14.5074C159.152 14.5074 157.589 15.0019 156.233 15.9893C154.877 16.9636 153.912 18.4072 153.337 20.3158H153.007V14.9478H144.521V45.7011H153.276V28.3035ZM168.496 19.9396C167.753 21.0466 167.228 22.2926 166.923 23.6788L168.496 23.8026V28.6934L162.284 26.8766C162.278 26.8748 162.256 26.8715 162.218 26.8628C162.172 26.8522 162.109 26.8373 162.025 26.8215C161.855 26.7895 161.625 26.7536 161.333 26.716C160.774 26.6442 160.324 26.6151 159.972 26.6151C159.41 26.6153 159.077 26.7295 158.856 26.8491L158.837 26.8582C158.607 26.9815 158.443 27.128 158.296 27.3583C158.204 27.5144 158.098 27.7849 158.098 28.3035V50.3992H139.699V45.7011H140.82L139.699 44.1091V15.5443L140.227 14.9478H139.699V10.2497H157.523C158.615 9.96236 159.75 9.8093 160.919 9.8093C161.555 9.8093 162.202 9.85078 162.854 9.91941C163.521 9.98965 164.193 10.0919 164.841 10.2497L168.496 11.1398V19.9396Z" fill="black"/>
<path d="M119.596 4.69819H110.841V45.7018H119.596V35.9338L121.964 33.2957L130.568 45.7018H140.82L128.515 28.2671L140.227 14.9479H130.177L120.066 26.62H119.596V4.69819ZM124.418 14.3102L127.936 10.2498H150.705L146.575 14.9479H144.521V17.2833L143.89 18.0036L134.59 28.5791L144.521 42.6507V45.7018H146.674L149.989 50.4H128.006L124.418 45.2246V50.4H106.019V0H124.418V14.3102Z" fill="black"/>
<path d="M70.0215 10.2497H88.0057V10.5663C89.6131 10.0793 91.3074 9.85059 93.0491 9.85059C95.9623 9.85059 98.7468 10.4789 101.229 11.9014C103.698 13.3168 105.588 15.3411 106.885 17.8291H106.88C108.199 20.3474 108.763 23.1638 108.764 26.1196V50.3992H90.3649V27.6107C90.3689 27.0706 90.2961 26.7519 90.2425 26.5921C90.217 26.5162 90.1969 26.4731 90.186 26.4545C90.1769 26.4391 90.1706 26.4307 90.1671 26.427L90.1436 26.404C90.1334 26.3933 90.1346 26.3933 90.1436 26.3994C90.1165 26.3889 89.9528 26.3354 89.5785 26.3352C89.1196 26.3352 88.9082 26.4231 88.8156 26.4728C88.7822 26.4942 88.7265 26.5436 88.6461 26.6885L88.5095 27.0922C88.4631 27.2984 88.4242 27.5831 88.4201 27.9685V50.3992H70.0215V10.2497ZM74.8436 45.7011H83.5979V27.9227C83.6117 26.6023 83.8635 25.4752 84.3561 24.5413C84.8629 23.5938 85.5613 22.8696 86.4516 22.3758C87.3558 21.8819 88.4004 21.6371 89.5785 21.6371L90.2142 21.6601C91.6672 21.7765 92.8329 22.3036 93.7084 23.2383C94.7079 24.2927 95.2008 25.7614 95.1871 27.6428V45.7011H103.941V26.1196C103.941 24.0288 103.593 22.1936 102.901 20.614L102.585 19.9533C101.794 18.4358 100.725 17.2245 99.3782 16.3196L98.7802 15.9526C97.1501 15.0187 95.2406 14.5487 93.0491 14.5487C90.7066 14.5487 88.7125 15.0771 87.0685 16.1315C85.425 17.1725 84.2541 18.5872 83.5555 20.3754H83.1835V14.9478H74.8436V45.7011Z" fill="black"/>
<path d="M68.0522 24.9588C68.0521 23.359 67.7747 21.9575 67.2187 20.7562L66.9597 20.2561C66.4152 19.2652 65.7232 18.4075 64.8783 17.6868L63.9835 17.0124C63.049 16.3821 62.0084 15.8766 60.8661 15.4938L59.6888 15.1497C58.4869 14.8494 57.2411 14.6605 55.9545 14.5853L54.6547 14.5486C52.1342 14.5486 49.9138 14.9254 47.996 15.6727L47.2991 15.9617C45.7087 16.6742 44.3844 17.6306 43.3293 18.8338C42.1239 20.1951 41.315 21.8104 40.9041 23.6787L49.0038 24.321C49.2297 23.5607 49.6294 22.8952 50.2093 22.3299L50.8498 21.7977C51.7813 21.117 53.0369 20.7745 54.6124 20.7745L55.6672 20.8388C56.6587 20.9689 57.4579 21.2955 58.0642 21.816L58.3514 22.0913C58.9809 22.7614 59.2979 23.6519 59.2979 24.7615V24.8808L59.2509 25.3396C59.156 25.7706 58.9156 26.1122 58.5351 26.3627L58.0971 26.5967C57.6015 26.8167 56.9329 26.9943 56.091 27.1243L54.1367 27.3721C53.3975 27.4587 52.5673 27.5494 51.6503 27.6427C50.0894 27.7896 48.596 28.0441 47.1719 28.4043C45.7613 28.7647 44.4999 29.2983 43.3905 30.0056L42.6041 30.5791C41.8591 31.1947 41.2457 31.9379 40.7628 32.8088L40.5368 33.2584C40.0442 34.3341 39.7974 35.6181 39.7974 37.1123L39.8163 37.8556C39.9149 39.5584 40.3624 41.0042 41.1537 42.1958C42.0715 43.5439 43.3173 44.5666 44.8927 45.2606C46.074 45.7709 47.3782 46.0919 48.806 46.2195L50.2752 46.2837C51.4465 46.2837 52.5143 46.1694 53.4775 45.9442L54.4052 45.6827C55.5962 45.2692 56.6171 44.7006 57.4661 43.9805C58.3148 43.2471 58.9937 42.3988 59.5004 41.4388H59.75V45.701H68.0522V24.9588ZM59.3592 34.7082C59.3592 35.7891 59.0777 36.7583 58.5162 37.6124C57.9548 38.4663 57.1805 39.147 56.1946 39.6541C55.2083 40.1479 54.0682 40.3973 52.7805 40.3973L51.8198 40.3377C51.2059 40.2625 50.65 40.1138 50.1528 39.8881L49.4559 39.4935C48.5929 38.8796 48.161 37.9934 48.1608 36.8325C48.1608 36.2312 48.2793 35.705 48.5187 35.2542L48.7966 34.8321C49.1149 34.4219 49.529 34.0733 50.0398 33.7906L50.5861 33.5291C51.3527 33.2092 52.2486 32.9739 53.275 32.8272C53.7544 32.7604 54.2917 32.687 54.8808 32.6069C55.4691 32.5136 56.0584 32.4154 56.6467 32.3087C57.2355 32.1886 57.7633 32.0613 58.229 31.9279C58.7082 31.7811 59.0853 31.6196 59.3592 31.4462V34.7082ZM72.8744 50.3991H55.0079C53.4903 50.7972 51.9003 50.9818 50.2752 50.9818C47.701 50.9818 45.224 50.5423 42.9384 49.5549L42.9055 49.5412C40.5397 48.499 38.5725 46.9081 37.1321 44.7926L37.1038 44.7513C35.5815 42.4591 34.9753 39.8196 34.9753 37.1123C34.9753 34.8473 35.4 32.5941 36.5199 30.5745C37.0027 29.7039 37.5765 28.9031 38.2387 28.1795L35.0412 27.9272L36.1902 22.6923C36.6886 20.4279 37.6327 18.351 39.044 16.5307L39.6797 15.7645C41.2241 14.0087 43.1203 12.6629 45.2789 11.6949L46.2207 11.3004C48.8139 10.2927 51.6586 9.85055 54.6547 9.85055C56.7874 9.85071 58.8688 10.0948 60.8849 10.5984H60.8802C62.9961 11.1231 64.9662 11.9603 66.729 13.1493H66.7242C68.6133 14.4138 70.1185 16.0549 71.2026 18.0217L71.617 18.8338C72.5027 20.7504 72.8742 22.8323 72.8744 24.9588V50.3991Z" fill="black"/>
<path d="M36.5059 18.5955C36.5059 16.2129 36.0529 14.0734 35.1402 12.1813L34.7211 11.3876C33.6904 9.55436 32.2513 8.07014 30.4028 6.94176L29.5834 6.48295C27.6174 5.44352 25.2893 4.85562 22.5996 4.72572L21.427 4.69819V0C25.2151 0.000264999 28.757 0.706522 31.8579 2.33992H31.8626C34.8872 3.92112 37.2862 6.18671 38.9312 9.09815L39.5057 10.1901C40.7533 12.7787 41.3282 15.6122 41.3282 18.5955C41.3279 22.0124 40.5653 25.2319 38.8982 28.1111C37.2112 31.0239 34.7599 33.2651 31.6931 34.8235L31.6978 34.8281C28.5776 36.4212 25.0151 37.1081 21.2009 37.1083H18.5402V50.4H0V0H21.427V4.69819H4.82225V45.7018H13.718V32.4102H21.2009L22.3877 32.3826C25.1122 32.2557 27.4708 31.6829 29.4609 30.6667C31.4624 29.6507 33.0489 28.2812 34.2219 26.5604L34.6976 25.8033C35.7524 23.9816 36.3457 21.9124 36.4777 19.6003L36.5059 18.5955ZM22.5195 18.5955C22.5195 17.8717 22.3747 17.475 22.2558 17.2603L22.237 17.2282L22.2228 17.1961C22.1661 17.0896 22.0843 16.9738 21.7943 16.8291L21.7519 16.8107C21.5227 16.6938 20.9304 16.485 19.7175 16.485H18.5402V20.761H19.7599V25.4592H13.718V11.7868H19.7175C21.4437 11.7868 22.8701 12.0754 23.9935 12.6493C25.1164 13.2098 25.9509 14.0032 26.4988 15.0305C27.0605 16.0449 27.3418 17.2341 27.3418 18.5955L27.29 19.5773C27.1846 20.5303 26.9199 21.3983 26.4988 22.1787C25.9508 23.2057 25.1163 24.0143 23.9935 24.6013L23.565 24.8031C22.5279 25.2428 21.2588 25.4592 19.7599 25.4592V20.761C20.9276 20.761 21.4952 20.5625 21.7142 20.4536C22.0445 20.2803 22.1554 20.1396 22.2228 20.0132L22.2323 19.9902C22.3799 19.7162 22.5193 19.2921 22.5195 18.5955Z" fill="black"/>
</svg>
